<svg xmlns="http://www.w3.org/2000/svg" viewBox="0 0 920 610" width="920" height="610" font-family="Helvetica, Arial, sans-serif">
<rect width="920" height="610" fill="#ffffff"/>
<text x="460.0" y="32.0" text-anchor="middle" font-size="20" font-weight="700" fill="#111">Template ordinati per punteggio, soglia e identità assegnata</text>
<text x="460.0" y="54.0" text-anchor="middle" font-size="13" fill="#444">Un probe p_j confrontato con N = 8 template · soglia t = 0.7</text>
<rect x="20" y="111" width="880" height="140" fill="#dcfce7" fill-opacity="0.6"/>
<rect x="20" y="251" width="880" height="220" fill="#f3f4f6"/>
<line x1="20" y1="251" x2="900" y2="251" stroke="#111" stroke-width="1.5" stroke-dasharray="7,5"/>
<rect x="190" y="131" width="336.7" height="28" rx="3" fill="#16a34a"/>
<text x="178.0" y="150.0" text-anchor="end" font-size="13" font-weight="700" fill="#222">rank 1 · g3</text>
<text x="534.7" y="150.0" text-anchor="start" font-size="12" fill="#333">0.91</text>
<text x="640.0" y="150.0" text-anchor="start" font-size="12.5" font-weight="700" fill="#15803d">restituito: id(g3)</text>
<rect x="190" y="175" width="310.8" height="28" rx="3" fill="#16a34a"/>
<text x="178.0" y="194.0" text-anchor="end" font-size="13" fill="#7c3aed">rank 2 · g7 ★</text>
<text x="508.8" y="194.0" text-anchor="start" font-size="12" fill="#333">0.84</text>
<text x="640.0" y="194.0" text-anchor="start" font-size="12.5" font-weight="700" fill="#7c3aed">candidato scartato  ★ template vero</text>
<rect x="190" y="219" width="284.9" height="28" rx="3" fill="#16a34a"/>
<text x="178.0" y="238.0" text-anchor="end" font-size="13" fill="#222">rank 3 · g1</text>
<text x="482.9" y="238.0" text-anchor="start" font-size="12" fill="#333">0.77</text>
<text x="640.0" y="238.0" text-anchor="start" font-size="12.5" fill="#555">candidato scartato</text>
<rect x="190" y="263" width="214.6" height="28" rx="3" fill="#9ca3af"/>
<text x="178.0" y="282.0" text-anchor="end" font-size="13" fill="#222">rank 4 · g5</text>
<text x="412.6" y="282.0" text-anchor="start" font-size="12" fill="#333">0.58</text>
<text x="640.0" y="282.0" text-anchor="start" font-size="12.5" fill="#777">sotto soglia</text>
<rect x="190" y="307" width="181.3" height="28" rx="3" fill="#9ca3af"/>
<text x="178.0" y="326.0" text-anchor="end" font-size="13" fill="#222">rank 5 · g2</text>
<text x="379.3" y="326.0" text-anchor="start" font-size="12" fill="#333">0.49</text>
<text x="640.0" y="326.0" text-anchor="start" font-size="12.5" fill="#777">sotto soglia</text>
<rect x="190" y="351" width="151.7" height="28" rx="3" fill="#9ca3af"/>
<text x="178.0" y="370.0" text-anchor="end" font-size="13" fill="#222">rank 6 · g8</text>
<text x="349.7" y="370.0" text-anchor="start" font-size="12" fill="#333">0.41</text>
<text x="640.0" y="370.0" text-anchor="start" font-size="12.5" fill="#777">sotto soglia</text>
<rect x="190" y="395" width="122.1" height="28" rx="3" fill="#9ca3af"/>
<text x="178.0" y="414.0" text-anchor="end" font-size="13" fill="#222">rank 7 · g6</text>
<text x="320.1" y="414.0" text-anchor="start" font-size="12" fill="#333">0.33</text>
<text x="640.0" y="414.0" text-anchor="start" font-size="12.5" fill="#777">sotto soglia</text>
<rect x="190" y="439" width="81.4" height="28" rx="3" fill="#9ca3af"/>
<text x="178.0" y="458.0" text-anchor="end" font-size="13" fill="#222">rank 8 · g4</text>
<text x="279.4" y="458.0" text-anchor="start" font-size="12" fill="#333">0.22</text>
<text x="640.0" y="458.0" text-anchor="start" font-size="12.5" fill="#777">sotto soglia</text>
<line x1="449.0" y1="111" x2="449.0" y2="471" stroke="#111" stroke-width="2" stroke-dasharray="7,5"/>
<text x="449.0" y="103.0" text-anchor="middle" font-size="14" font-weight="700" fill="#111">t = 0.7</text>
<text x="30.0" y="243.0" text-anchor="start" font-size="11.5" font-weight="700" fill="#15803d">sopra soglia</text>
<text x="30.0" y="267.0" text-anchor="start" font-size="11.5" font-weight="700" fill="#555">sotto soglia</text>
<rect x="80.0" y="492.0" width="760.0" height="62.0" rx="8" fill="#fef3c7" stroke="#b45309" stroke-width="1.5"/>
<text x="460.0" y="519.3" text-anchor="middle" font-size="13" font-weight="700" fill="#222">Output: id(g3) ✗ non è la vera identità</text>
<text x="460.0" y="535.8" text-anchor="middle" font-size="13" fill="#222">il template vero è al rank 2: caso B (falso rifiuto per la persona vera)</text>
<text x="460.0" y="598.0" text-anchor="middle" font-size="11.5" fill="#555">★ = template della vera identità: il rank lo calcola chi valuta (ground truth), il sistema vede solo l'ordinamento</text>
</svg>