<svg xmlns="http://www.w3.org/2000/svg" width="920" height="560" viewBox="0 0 920 560">
<rect width="100%" height="100%" fill="#ffffff"/>
<text x="460.0" y="30" text-anchor="middle" font-family="Arial, Helvetica, sans-serif" font-size="20" fill="#111827" font-weight="700">Confrontare due sistemi: l&#x27;AUC non basta, conta il punto operativo</text>
<text x="460.0" y="53" text-anchor="middle" font-family="Arial, Helvetica, sans-serif" font-size="11.5" fill="#4b5563">Gaussiane diverse per genuini e impostori · DET in scala log · A: più separato in media, B: impostori molto concentrati</text>
<line x1="90.0" y1="100" x2="90.0" y2="450" stroke="#d1d5db"/>
<line x1="90" y1="450.0" x2="500" y2="450.0" stroke="#d1d5db"/>
<text x="90.0" y="468" text-anchor="middle" font-family="Arial, Helvetica, sans-serif" font-size="11.5" fill="#333">0.1%</text>
<text x="82" y="454.0" text-anchor="end" font-family="Arial, Helvetica, sans-serif" font-size="11.5" fill="#333">0.1%</text>
<line x1="226.7" y1="100" x2="226.7" y2="450" stroke="#d1d5db"/>
<line x1="90" y1="333.3" x2="500" y2="333.3" stroke="#d1d5db"/>
<text x="226.66666666666666" y="468" text-anchor="middle" font-family="Arial, Helvetica, sans-serif" font-size="11.5" fill="#333">1%</text>
<text x="82" y="337.33333333333337" text-anchor="end" font-family="Arial, Helvetica, sans-serif" font-size="11.5" fill="#333">1%</text>
<line x1="363.3" y1="100" x2="363.3" y2="450" stroke="#d1d5db"/>
<line x1="90" y1="216.7" x2="500" y2="216.7" stroke="#d1d5db"/>
<text x="363.3333333333333" y="468" text-anchor="middle" font-family="Arial, Helvetica, sans-serif" font-size="11.5" fill="#333">10%</text>
<text x="82" y="220.66666666666669" text-anchor="end" font-family="Arial, Helvetica, sans-serif" font-size="11.5" fill="#333">10%</text>
<line x1="500.0" y1="100" x2="500.0" y2="450" stroke="#d1d5db"/>
<line x1="90" y1="100.0" x2="500" y2="100.0" stroke="#d1d5db"/>
<text x="500.0" y="468" text-anchor="middle" font-family="Arial, Helvetica, sans-serif" font-size="11.5" fill="#333">100%</text>
<text x="82" y="104.0" text-anchor="end" font-family="Arial, Helvetica, sans-serif" font-size="11.5" fill="#333">100%</text>
<line x1="90" y1="450" x2="500" y2="450" stroke="#222" stroke-width="1.5"/>
<line x1="90" y1="100" x2="90" y2="450" stroke="#222" stroke-width="1.5"/>
<text x="295.0" y="484" text-anchor="middle" font-family="Arial, Helvetica, sans-serif" font-size="12" fill="#222">FAR (scala log)</text>
<text x="38" y="275.0" text-anchor="middle" font-family="Arial, Helvetica, sans-serif" font-size="13" fill="#222" transform="rotate(-90 38 275.0)">FRR (scala log)</text>
<path d="M 462.9,449.6 L 462.6,448.6 L 462.4,447.6 L 462.1,446.6 L 461.8,445.5 L 461.5,444.5 L 461.3,443.5 L 461.0,442.5 L 460.7,441.5 L 460.4,440.5 L 460.2,439.5 L 459.9,438.5 L 459.6,437.5 L 459.3,436.5 L 459.0,435.5 L 458.8,434.5 L 458.5,433.5 L 458.2,432.5 L 457.9,431.5 L 457.6,430.5 L 457.3,429.5 L 457.0,428.5 L 456.7,427.5 L 456.4,426.5 L 456.1,425.6 L 455.8,424.6 L 455.6,423.6 L 455.3,422.6 L 454.9,421.6 L 454.6,420.7 L 454.3,419.7 L 454.0,418.7 L 453.7,417.8 L 453.4,416.8 L 453.1,415.8 L 452.8,414.9 L 452.5,413.9 L 452.2,412.9 L 451.9,412.0 L 451.5,411.0 L 451.2,410.1 L 450.9,409.1 L 450.6,408.1 L 450.3,407.2 L 449.9,406.2 L 449.6,405.3 L 449.3,404.4 L 448.9,403.4 L 448.6,402.5 L 448.3,401.5 L 448.0,400.6 L 447.6,399.7 L 447.3,398.7 L 446.9,397.8 L 446.6,396.8 L 446.3,395.9 L 445.9,395.0 L 445.6,394.1 L 445.2,393.1 L 444.9,392.2 L 444.5,391.3 L 444.2,390.4 L 443.8,389.4 L 443.5,388.5 L 443.1,387.6 L 442.8,386.7 L 442.4,385.8 L 442.1,384.9 L 441.7,384.0 L 441.3,383.1 L 441.0,382.2 L 440.6,381.3 L 440.2,380.3 L 439.9,379.4 L 439.5,378.6 L 439.1,377.7 L 438.8,376.8 L 438.4,375.9 L 438.0,375.0 L 437.6,374.1 L 437.3,373.2 L 436.9,372.3 L 436.5,371.4 L 436.1,370.5 L 435.7,369.7 L 435.4,368.8 L 435.0,367.9 L 434.6,367.0 L 434.2,366.1 L 433.8,365.3 L 433.4,364.4 L 433.0,363.5 L 432.6,362.7 L 432.2,361.8 L 431.8,360.9 L 431.4,360.1 L 431.0,359.2 L 430.6,358.3 L 430.2,357.5 L 429.8,356.6 L 429.4,355.8 L 429.0,354.9 L 428.6,354.1 L 428.2,353.2 L 427.7,352.4 L 427.3,351.5 L 426.9,350.7 L 426.5,349.8 L 426.1,349.0 L 425.6,348.1 L 425.2,347.3 L 424.8,346.5 L 424.4,345.6 L 423.9,344.8 L 423.5,344.0 L 423.1,343.1 L 422.6,342.3 L 422.2,341.5 L 421.8,340.6 L 421.3,339.8 L 420.9,339.0 L 420.4,338.2 L 420.0,337.4 L 419.6,336.5 L 419.1,335.7 L 418.7,334.9 L 418.2,334.1 L 417.8,333.3 L 417.3,332.5 L 416.8,331.7 L 416.4,330.9 L 415.9,330.1 L 415.5,329.3 L 415.0,328.5 L 414.5,327.7 L 414.1,326.9 L 413.6,326.1 L 413.1,325.3 L 412.7,324.5 L 412.2,323.7 L 411.7,322.9 L 411.3,322.1 L 410.8,321.3 L 410.3,320.5 L 409.8,319.8 L 409.3,319.0 L 408.9,318.2 L 408.4,317.4 L 407.9,316.6 L 407.4,315.9 L 406.9,315.1 L 406.4,314.3 L 405.9,313.5 L 405.4,312.8 L 404.9,312.0 L 404.4,311.2 L 403.9,310.5 L 403.4,309.7 L 402.9,309.0 L 402.4,308.2 L 401.9,307.4 L 401.4,306.7 L 400.9,305.9 L 400.4,305.2 L 399.9,304.4 L 399.4,303.7 L 398.9,302.9 L 398.3,302.2 L 397.8,301.4 L 397.3,300.7 L 396.8,300.0 L 396.3,299.2 L 395.7,298.5 L 395.2,297.8 L 394.7,297.0 L 394.1,296.3 L 393.6,295.6 L 393.1,294.8 L 392.5,294.1 L 392.0,293.4 L 391.5,292.6 L 390.9,291.9 L 390.4,291.2 L 389.8,290.5 L 389.3,289.8 L 388.7,289.1 L 388.2,288.3 L 387.6,287.6 L 387.1,286.9 L 386.5,286.2 L 386.0,285.5 L 385.4,284.8 L 384.8,284.1 L 384.3,283.4 L 383.7,282.7 L 383.1,282.0 L 382.6,281.3 L 382.0,280.6 L 381.4,279.9 L 380.9,279.2 L 380.3,278.5 L 379.7,277.8 L 379.1,277.1 L 378.6,276.4 L 378.0,275.7 L 377.4,275.1 L 376.8,274.4 L 376.2,273.7 L 375.6,273.0 L 375.0,272.3 L 374.5,271.7 L 373.9,271.0 L 373.3,270.3 L 372.7,269.6 L 372.1,269.0 L 371.5,268.3 L 370.9,267.6 L 370.3,267.0 L 369.7,266.3 L 369.0,265.6 L 368.4,265.0 L 367.8,264.3 L 367.2,263.7 L 366.6,263.0 L 366.0,262.4 L 365.4,261.7 L 364.7,261.1 L 364.1,260.4 L 363.5,259.8 L 362.9,259.1 L 362.2,258.5 L 361.6,257.8 L 361.0,257.2 L 360.4,256.5 L 359.7,255.9 L 359.1,255.3 L 358.4,254.6 L 357.8,254.0 L 357.2,253.4 L 356.5,252.7 L 355.9,252.1 L 355.2,251.5 L 354.6,250.9 L 353.9,250.2 L 353.3,249.6 L 352.6,249.0 L 352.0,248.4 L 351.3,247.8 L 350.6,247.1 L 350.0,246.5 L 349.3,245.9 L 348.7,245.3 L 348.0,244.7 L 347.3,244.1 L 346.7,243.5 L 346.0,242.9 L 345.3,242.3 L 344.6,241.7 L 344.0,241.1 L 343.3,240.5 L 342.6,239.9 L 341.9,239.3 L 341.2,238.7 L 340.5,238.1 L 339.9,237.5 L 339.2,236.9 L 338.5,236.3 L 337.8,235.7 L 337.1,235.1 L 336.4,234.6 L 335.7,234.0 L 335.0,233.4 L 334.3,232.8 L 333.6,232.2 L 332.9,231.7 L 332.2,231.1 L 331.5,230.5 L 330.7,230.0 L 330.0,229.4 L 329.3,228.8 L 328.6,228.2 L 327.9,227.7 L 327.2,227.1 L 326.4,226.6 L 325.7,226.0 L 325.0,225.4 L 324.2,224.9 L 323.5,224.3 L 322.8,223.8 L 322.1,223.2 L 321.3,222.7 L 320.6,222.1 L 319.8,221.6 L 319.1,221.0 L 318.4,220.5 L 317.6,219.9 L 316.9,219.4 L 316.1,218.9 L 315.4,218.3 L 314.6,217.8 L 313.9,217.2 L 313.1,216.7 L 312.3,216.2 L 311.6,215.6 L 310.8,215.1 L 310.1,214.6 L 309.3,214.1 L 308.5,213.5 L 307.8,213.0 L 307.0,212.5 L 306.2,212.0 L 305.4,211.4 L 304.7,210.9 L 303.9,210.4 L 303.1,209.9 L 302.3,209.4 L 301.5,208.9 L 300.7,208.4 L 300.0,207.9 L 299.2,207.3 L 298.4,206.8 L 297.6,206.3 L 296.8,205.8 L 296.0,205.3 L 295.2,204.8 L 294.4,204.3 L 293.6,203.8 L 292.8,203.3 L 292.0,202.8 L 291.2,202.4 L 290.4,201.9 L 289.5,201.4 L 288.7,200.9 L 287.9,200.4 L 287.1,199.9 L 286.3,199.4 L 285.5,198.9 L 284.6,198.5 L 283.8,198.0 L 283.0,197.5 L 282.2,197.0 L 281.3,196.6 L 280.5,196.1 L 279.7,195.6 L 278.8,195.1 L 278.0,194.7 L 277.1,194.2 L 276.3,193.7 L 275.5,193.3 L 274.6,192.8 L 273.8,192.4 L 272.9,191.9 L 272.1,191.4 L 271.2,191.0 L 270.3,190.5 L 269.5,190.1 L 268.6,189.6 L 267.8,189.2 L 266.9,188.7 L 266.0,188.3 L 265.2,187.8 L 264.3,187.4 L 263.4,186.9 L 262.6,186.5 L 261.7,186.0 L 260.8,185.6 L 259.9,185.2 L 259.1,184.7 L 258.2,184.3 L 257.3,183.9 L 256.4,183.4 L 255.5,183.0 L 254.6,182.6 L 253.7,182.1 L 252.8,181.7 L 251.9,181.3 L 251.0,180.9 L 250.1,180.4 L 249.2,180.0 L 248.3,179.6 L 247.4,179.2 L 246.5,178.8 L 245.6,178.4 L 244.7,177.9 L 243.8,177.5 L 242.9,177.1 L 242.0,176.7 L 241.0,176.3 L 240.1,175.9 L 239.2,175.5 L 238.3,175.1 L 237.4,174.7 L 236.4,174.3 L 235.5,173.9 L 234.6,173.5 L 233.6,173.1 L 232.7,172.7 L 231.8,172.3 L 230.8,171.9 L 229.9,171.5 L 228.9,171.1 L 228.0,170.7 L 227.0,170.3 L 226.1,170.0 L 225.1,169.6 L 224.2,169.2 L 223.2,168.8 L 222.3,168.4 L 221.3,168.0 L 220.4,167.7 L 219.4,167.3 L 218.4,166.9 L 217.5,166.5 L 216.5,166.2 L 215.5,165.8 L 214.5,165.4 L 213.6,165.1 L 212.6,164.7 L 211.6,164.3 L 210.6,164.0 L 209.7,163.6 L 208.7,163.2 L 207.7,162.9 L 206.7,162.5 L 205.7,162.2 L 204.7,161.8 L 203.7,161.4 L 202.7,161.1 L 201.7,160.7 L 200.7,160.4 L 199.7,160.0 L 198.7,159.7 L 197.7,159.3 L 196.7,159.0 L 195.7,158.7 L 194.7,158.3 L 193.7,158.0 L 192.7,157.6 L 191.6,157.3 L 190.6,157.0 L 189.6,156.6 L 188.6,156.3 L 187.6,156.0 L 186.5,155.6 L 185.5,155.3 L 184.5,155.0 L 183.4,154.6 L 182.4,154.3 L 181.4,154.0 L 180.3,153.7 L 179.3,153.3 L 178.2,153.0 L 177.2,152.7 L 176.1,152.4 L 175.1,152.1 L 174.0,151.7 L 173.0,151.4 L 171.9,151.1 L 170.9,150.8 L 169.8,150.5 L 168.8,150.2 L 167.7,149.9 L 166.6,149.6 L 165.6,149.3 L 164.5,149.0 L 163.4,148.6 L 162.4,148.3 L 161.3,148.0 L 160.2,147.7 L 159.1,147.4 L 158.1,147.1 L 157.0,146.9 L 155.9,146.6 L 154.8,146.3 L 153.7,146.0 L 152.6,145.7 L 151.5,145.4 L 150.4,145.1 L 149.3,144.8 L 148.2,144.5 L 147.1,144.2 L 146.0,144.0 L 144.9,143.7 L 143.8,143.4 L 142.7,143.1 L 141.6,142.8 L 140.5,142.6 L 139.4,142.3 L 138.3,142.0 L 137.2,141.7 L 136.0,141.5 L 134.9,141.2 L 133.8,140.9 L 132.7,140.7 L 131.5,140.4 L 130.4,140.1 L 129.3,139.9 L 128.2,139.6 L 127.0,139.3 L 125.9,139.1 L 124.7,138.8 L 123.6,138.5 L 122.5,138.3 L 121.3,138.0 L 120.2,137.8 L 119.0,137.5 L 117.9,137.3 L 116.7,137.0 L 115.6,136.8 L 114.4,136.5 L 113.2,136.3 L 112.1,136.0 L 110.9,135.8 L 109.8,135.5 L 108.6,135.3 L 107.4,135.0 L 106.2,134.8 L 105.1,134.6 L 103.9,134.3 L 102.7,134.1 L 101.5,133.8 L 100.4,133.6 L 99.2,133.4 L 98.0,133.1 L 96.8,132.9 L 95.6,132.7 L 94.4,132.4 L 93.2,132.2 L 92.0,132.0 L 90.8,131.8" fill="none" stroke="#2563eb" stroke-width="3.2"/>
<path d="M 500.0,450.0 L 500.0,449.4 L 500.0,448.9 L 500.0,448.4 L 500.0,447.9 L 500.0,447.4 L 500.0,446.9 L 500.0,446.4 L 500.0,445.9 L 500.0,445.4 L 500.0,444.9 L 500.0,444.4 L 500.0,443.8 L 500.0,443.3 L 500.0,442.8 L 500.0,442.3 L 500.0,441.8 L 500.0,441.3 L 500.0,440.8 L 500.0,440.3 L 500.0,439.8 L 500.0,439.3 L 500.0,438.8 L 500.0,438.3 L 500.0,437.8 L 500.0,437.3 L 500.0,436.8 L 500.0,436.3 L 500.0,435.8 L 500.0,435.3 L 500.0,434.8 L 500.0,434.3 L 500.0,433.8 L 500.0,433.3 L 500.0,432.8 L 500.0,432.3 L 500.0,431.8 L 500.0,431.3 L 500.0,430.8 L 500.0,430.3 L 500.0,429.8 L 500.0,429.3 L 500.0,428.8 L 500.0,428.3 L 500.0,427.9 L 500.0,427.4 L 500.0,426.9 L 500.0,426.4 L 500.0,425.9 L 500.0,425.4 L 500.0,424.9 L 500.0,424.4 L 500.0,423.9 L 500.0,423.4 L 500.0,422.9 L 500.0,422.5 L 500.0,422.0 L 500.0,421.5 L 500.0,421.0 L 500.0,420.5 L 500.0,420.0 L 500.0,419.5 L 500.0,419.0 L 500.0,418.6 L 500.0,418.1 L 500.0,417.6 L 500.0,417.1 L 500.0,416.6 L 500.0,416.1 L 500.0,415.7 L 500.0,415.2 L 500.0,414.7 L 500.0,414.2 L 500.0,413.7 L 500.0,413.3 L 500.0,412.8 L 500.0,412.3 L 500.0,411.8 L 500.0,411.3 L 500.0,410.9 L 500.0,410.4 L 500.0,409.9 L 500.0,409.4 L 500.0,408.9 L 500.0,408.5 L 500.0,408.0 L 500.0,407.5 L 500.0,407.0 L 500.0,406.6 L 500.0,406.1 L 500.0,405.6 L 500.0,405.1 L 500.0,404.7 L 500.0,404.2 L 500.0,403.7 L 500.0,403.3 L 500.0,402.8 L 500.0,402.3 L 500.0,401.8 L 500.0,401.4 L 500.0,400.9 L 500.0,400.4 L 500.0,400.0 L 500.0,399.5 L 500.0,399.0 L 500.0,398.6 L 500.0,398.1 L 500.0,397.6 L 500.0,397.2 L 500.0,396.7 L 500.0,396.2 L 500.0,395.8 L 500.0,395.3 L 500.0,394.8 L 500.0,394.4 L 500.0,393.9 L 500.0,393.4 L 500.0,393.0 L 500.0,392.5 L 500.0,392.1 L 500.0,391.6 L 500.0,391.1 L 500.0,390.7 L 500.0,390.2 L 500.0,389.8 L 500.0,389.3 L 500.0,388.8 L 500.0,388.4 L 500.0,387.9 L 500.0,387.5 L 500.0,387.0 L 500.0,386.5 L 500.0,386.1 L 500.0,385.6 L 500.0,385.2 L 500.0,384.7 L 500.0,384.3 L 500.0,383.8 L 500.0,383.4 L 500.0,382.9 L 500.0,382.5 L 500.0,382.0 L 500.0,381.6 L 500.0,381.1 L 500.0,380.7 L 500.0,380.2 L 500.0,379.7 L 500.0,379.3 L 500.0,378.8 L 500.0,378.4 L 500.0,378.0 L 500.0,377.5 L 500.0,377.1 L 500.0,376.6 L 500.0,376.2 L 500.0,375.7 L 500.0,375.3 L 500.0,374.8 L 500.0,374.4 L 500.0,373.9 L 500.0,373.5 L 500.0,373.0 L 500.0,372.6 L 500.0,372.2 L 500.0,371.7 L 500.0,371.3 L 500.0,370.8 L 500.0,370.4 L 500.0,369.9 L 500.0,369.5 L 500.0,369.1 L 500.0,368.6 L 500.0,368.2 L 500.0,367.7 L 500.0,367.3 L 500.0,366.9 L 500.0,366.4 L 500.0,366.0 L 500.0,365.6 L 500.0,365.1 L 500.0,364.7 L 500.0,364.2 L 500.0,363.8 L 499.9,363.4 L 499.9,362.9 L 499.9,362.5 L 499.9,362.1 L 499.9,361.6 L 499.9,361.2 L 499.9,360.8 L 499.9,360.3 L 499.9,359.9 L 499.9,359.5 L 499.9,359.1 L 499.9,358.6 L 499.9,358.2 L 499.9,357.8 L 499.9,357.3 L 499.9,356.9 L 499.9,356.5 L 499.9,356.0 L 499.9,355.6 L 499.9,355.2 L 499.9,354.8 L 499.9,354.3 L 499.9,353.9 L 499.9,353.5 L 499.9,353.1 L 499.9,352.6 L 499.9,352.2 L 499.9,351.8 L 499.9,351.4 L 499.9,350.9 L 499.9,350.5 L 499.9,350.1 L 499.9,349.7 L 499.9,349.3 L 499.8,348.8 L 499.8,348.4 L 499.8,348.0 L 499.8,347.6 L 499.8,347.2 L 499.8,346.7 L 499.8,346.3 L 499.8,345.9 L 499.8,345.5 L 499.8,345.1 L 499.8,344.7 L 499.8,344.2 L 499.8,343.8 L 499.8,343.4 L 499.8,343.0 L 499.8,342.6 L 499.8,342.2 L 499.7,341.7 L 499.7,341.3 L 499.7,340.9 L 499.7,340.5 L 499.7,340.1 L 499.7,339.7 L 499.7,339.3 L 499.7,338.9 L 499.7,338.5 L 499.7,338.0 L 499.7,337.6 L 499.6,337.2 L 499.6,336.8 L 499.6,336.4 L 499.6,336.0 L 499.6,335.6 L 499.6,335.2 L 499.6,334.8 L 499.6,334.4 L 499.6,334.0 L 499.5,333.6 L 499.5,333.2 L 499.5,332.7 L 499.5,332.3 L 499.5,331.9 L 499.5,331.5 L 499.5,331.1 L 499.5,330.7 L 499.4,330.3 L 499.4,329.9 L 499.4,329.5 L 499.4,329.1 L 499.4,328.7 L 499.4,328.3 L 499.3,327.9 L 499.3,327.5 L 499.3,327.1 L 499.3,326.7 L 499.3,326.3 L 499.2,325.9 L 499.2,325.5 L 499.2,325.1 L 499.2,324.7 L 499.2,324.3 L 499.1,323.9 L 499.1,323.6 L 499.1,323.2 L 499.1,322.8 L 499.0,322.4 L 499.0,322.0 L 499.0,321.6 L 499.0,321.2 L 498.9,320.8 L 498.9,320.4 L 498.9,320.0 L 498.9,319.6 L 498.8,319.2 L 498.8,318.8 L 498.8,318.5 L 498.7,318.1 L 498.7,317.7 L 498.7,317.3 L 498.7,316.9 L 498.6,316.5 L 498.6,316.1 L 498.6,315.7 L 498.5,315.3 L 498.5,315.0 L 498.4,314.6 L 498.4,314.2 L 498.4,313.8 L 498.3,313.4 L 498.3,313.0 L 498.3,312.6 L 498.2,312.3 L 498.2,311.9 L 498.1,311.5 L 498.1,311.1 L 498.0,310.7 L 498.0,310.4 L 498.0,310.0 L 497.9,309.6 L 497.9,309.2 L 497.8,308.8 L 497.8,308.5 L 497.7,308.1 L 497.7,307.7 L 497.6,307.3 L 497.6,306.9 L 497.5,306.6 L 497.4,306.2 L 497.4,305.8 L 497.3,305.4 L 497.3,305.1 L 497.2,304.7 L 497.2,304.3 L 497.1,303.9 L 497.0,303.6 L 497.0,303.2 L 496.9,302.8 L 496.8,302.4 L 496.8,302.1 L 496.7,301.7 L 496.6,301.3 L 496.6,301.0 L 496.5,300.6 L 496.4,300.2 L 496.3,299.8 L 496.3,299.5 L 496.2,299.1 L 496.1,298.7 L 496.0,298.4 L 496.0,298.0 L 495.9,297.6 L 495.8,297.3 L 495.7,296.9 L 495.6,296.5 L 495.5,296.2 L 495.4,295.8 L 495.3,295.4 L 495.3,295.1 L 495.2,294.7 L 495.1,294.3 L 495.0,294.0 L 494.9,293.6 L 494.8,293.3 L 494.7,292.9 L 494.6,292.5 L 494.5,292.2 L 494.4,291.8 L 494.3,291.4 L 494.1,291.1 L 494.0,290.7 L 493.9,290.4 L 493.8,290.0 L 493.7,289.6 L 493.6,289.3 L 493.5,288.9 L 493.3,288.6 L 493.2,288.2 L 493.1,287.9 L 493.0,287.5 L 492.8,287.1 L 492.7,286.8 L 492.6,286.4 L 492.4,286.1 L 492.3,285.7 L 492.2,285.4 L 492.0,285.0 L 491.9,284.7 L 491.7,284.3 L 491.6,284.0 L 491.4,283.6 L 491.3,283.3 L 491.1,282.9 L 491.0,282.6 L 490.8,282.2 L 490.7,281.9 L 490.5,281.5 L 490.4,281.2 L 490.2,280.8 L 490.0,280.5 L 489.9,280.1 L 489.7,279.8 L 489.5,279.4 L 489.3,279.1 L 489.2,278.7 L 489.0,278.4 L 488.8,278.0 L 488.6,277.7 L 488.4,277.3 L 488.2,277.0 L 488.1,276.7 L 487.9,276.3 L 487.7,276.0 L 487.5,275.6 L 487.3,275.3 L 487.1,274.9 L 486.9,274.6 L 486.7,274.3 L 486.4,273.9 L 486.2,273.6 L 486.0,273.2 L 485.8,272.9 L 485.6,272.6 L 485.4,272.2 L 485.1,271.9 L 484.9,271.6 L 484.7,271.2 L 484.4,270.9 L 484.2,270.5 L 484.0,270.2 L 483.7,269.9 L 483.5,269.5 L 483.2,269.2 L 483.0,268.9 L 482.7,268.5 L 482.5,268.2 L 482.2,267.9 L 482.0,267.5 L 481.7,267.2 L 481.4,266.9 L 481.2,266.5 L 480.9,266.2 L 480.6,265.9 L 480.3,265.5 L 480.0,265.2 L 479.8,264.9 L 479.5,264.6 L 479.2,264.2 L 478.9,263.9 L 478.6,263.6 L 478.3,263.2 L 478.0,262.9 L 477.7,262.6 L 477.4,262.3 L 477.1,261.9 L 476.8,261.6 L 476.4,261.3 L 476.1,261.0 L 475.8,260.6 L 475.5,260.3 L 475.1,260.0 L 474.8,259.7 L 474.5,259.3 L 474.1,259.0 L 473.8,258.7 L 473.4,258.4 L 473.1,258.0 L 472.7,257.7 L 472.4,257.4 L 472.0,257.1 L 471.7,256.8 L 471.3,256.4 L 470.9,256.1 L 470.6,255.8 L 470.2,255.5 L 469.8,255.2 L 469.4,254.9 L 469.0,254.5 L 468.6,254.2 L 468.3,253.9 L 467.9,253.6 L 467.5,253.3 L 467.1,253.0 L 466.6,252.6 L 466.2,252.3 L 465.8,252.0 L 465.4,251.7 L 465.0,251.4 L 464.6,251.1 L 464.1,250.8 L 463.7,250.4 L 463.3,250.1 L 462.8,249.8 L 462.4,249.5 L 461.9,249.2 L 461.5,248.9 L 461.0,248.6 L 460.6,248.3 L 460.1,248.0 L 459.6,247.7 L 459.2,247.3 L 458.7,247.0 L 458.2,246.7 L 457.7,246.4 L 457.3,246.1 L 456.8,245.8 L 456.3,245.5 L 455.8,245.2 L 455.3,244.9 L 454.8,244.6 L 454.3,244.3 L 453.8,244.0 L 453.2,243.7 L 452.7,243.4 L 452.2,243.1 L 451.7,242.8 L 451.1,242.5 L 450.6,242.2 L 450.1,241.9 L 449.5,241.6 L 449.0,241.3 L 448.4,241.0 L 447.9,240.7 L 447.3,240.4 L 446.8,240.1 L 446.2,239.8 L 445.6,239.5 L 445.0,239.2 L 444.5,238.9 L 443.9,238.6 L 443.3,238.3 L 442.7,238.0 L 442.1,237.7 L 441.5,237.4 L 440.9,237.1 L 440.3,236.8 L 439.7,236.5 L 439.1,236.2 L 438.4,235.9 L 437.8,235.6 L 437.2,235.3 L 436.6,235.1 L 435.9,234.8 L 435.3,234.5 L 434.6,234.2 L 434.0,233.9 L 433.3,233.6 L 432.7,233.3 L 432.0,233.0 L 431.3,232.7 L 430.7,232.4 L 430.0,232.2 L 429.3,231.9 L 428.6,231.6 L 427.9,231.3 L 427.2,231.0 L 426.5,230.7 L 425.8,230.4 L 425.1,230.1 L 424.4,229.9 L 423.7,229.6 L 423.0,229.3 L 422.2,229.0 L 421.5,228.7 L 420.8,228.4 L 420.0,228.2 L 419.3,227.9 L 418.6,227.6 L 417.8,227.3 L 417.0,227.0 L 416.3,226.7 L 415.5,226.5 L 414.8,226.2 L 414.0,225.9 L 413.2,225.6 L 412.4,225.3 L 411.6,225.1 L 410.8,224.8 L 410.0,224.5 L 409.2,224.2 L 408.4,224.0 L 407.6,223.7 L 406.8,223.4 L 406.0,223.1 L 405.2,222.9 L 404.3,222.6 L 403.5,222.3 L 402.7,222.0 L 401.8,221.8 L 401.0,221.5 L 400.1,221.2 L 399.3,220.9 L 398.4,220.7 L 397.5,220.4 L 396.7,220.1 L 395.8,219.8 L 394.9,219.6 L 394.0,219.3 L 393.1,219.0 L 392.2,218.8 L 391.3,218.5 L 390.4,218.2 L 389.5,218.0 L 388.6,217.7 L 387.7,217.4 L 386.8,217.2 L 385.8,216.9 L 384.9,216.6 L 384.0,216.4 L 383.0,216.1 L 382.1,215.8 L 381.1,215.6 L 380.2,215.3 L 379.2,215.0 L 378.2,214.8 L 377.3,214.5 L 376.3,214.2 L 375.3,214.0 L 374.3,213.7 L 373.3,213.4 L 372.3,213.2 L 371.3,212.9 L 370.3,212.7 L 369.3,212.4 L 368.3,212.1 L 367.3,211.9 L 366.3,211.6 L 365.2,211.4 L 364.2,211.1 L 363.1,210.8 L 362.1,210.6 L 361.1,210.3 L 360.0,210.1 L 358.9,209.8 L 357.9,209.6 L 356.8,209.3 L 355.7,209.0 L 354.6,208.8 L 353.6,208.5 L 352.5,208.3 L 351.4,208.0 L 350.3,207.8 L 349.2,207.5 L 348.1,207.3 L 347.0,207.0 L 345.8,206.8 L 344.7,206.5 L 343.6,206.3 L 342.4,206.0 L 341.3,205.7 L 340.2,205.5 L 339.0,205.2 L 337.9,205.0 L 336.7,204.7 L 335.5,204.5 L 334.4,204.3 L 333.2,204.0 L 332.0,203.8 L 330.8,203.5 L 329.6,203.3 L 328.4,203.0 L 327.2,202.8 L 326.0,202.5 L 324.8,202.3 L 323.6,202.0 L 322.4,201.8 L 321.2,201.5 L 319.9,201.3 L 318.7,201.0 L 317.4,200.8 L 316.2,200.6 L 314.9,200.3 L 313.7,200.1 L 312.4,199.8 L 311.2,199.6 L 309.9,199.4 L 308.6,199.1 L 307.3,198.9 L 306.0,198.6 L 304.7,198.4 L 303.4,198.1 L 302.1,197.9 L 300.8,197.7 L 299.5,197.4 L 298.2,197.2 L 296.9,197.0 L 295.6,196.7 L 294.2,196.5 L 292.9,196.2 L 291.5,196.0 L 290.2,195.8 L 288.8,195.5 L 287.5,195.3 L 286.1,195.1 L 284.7,194.8 L 283.4,194.6 L 282.0,194.4 L 280.6,194.1 L 279.2,193.9 L 277.8,193.7 L 276.4,193.4 L 275.0,193.2 L 273.6,193.0 L 272.2,192.7 L 270.7,192.5 L 269.3,192.3 L 267.9,192.0 L 266.4,191.8 L 265.0,191.6 L 263.5,191.4 L 262.1,191.1 L 260.6,190.9 L 259.2,190.7 L 257.7,190.4 L 256.2,190.2 L 254.7,190.0 L 253.2,189.8 L 251.7,189.5 L 250.2,189.3 L 248.7,189.1 L 247.2,188.9 L 245.7,188.6 L 244.2,188.4 L 242.7,188.2 L 241.1,188.0 L 239.6,187.7 L 238.1,187.5 L 236.5,187.3 L 235.0,187.1 L 233.4,186.9 L 231.9,186.6 L 230.3,186.4 L 228.7,186.2 L 227.1,186.0 L 225.6,185.8 L 224.0,185.5 L 222.4,185.3 L 220.8,185.1 L 219.2,184.9 L 217.6,184.7 L 215.9,184.4 L 214.3,184.2 L 212.7,184.0 L 211.1,183.8 L 209.4,183.6 L 207.8,183.4 L 206.1,183.1 L 204.5,182.9 L 202.8,182.7 L 201.2,182.5 L 199.5,182.3 L 197.8,182.1 L 196.1,181.9 L 194.5,181.6 L 192.8,181.4 L 191.1,181.2 L 189.4,181.0 L 187.7,180.8 L 186.0,180.6 L 184.2,180.4 L 182.5,180.2 L 180.8,180.0 L 179.1,179.7 L 177.3,179.5 L 175.6,179.3 L 173.8,179.1 L 172.1,178.9 L 170.3,178.7 L 168.5,178.5 L 166.8,178.3 L 165.0,178.1 L 163.2,177.9 L 161.4,177.7 L 159.6,177.5 L 157.8,177.3 L 156.0,177.0 L 154.2,176.8 L 152.4,176.6 L 150.6,176.4 L 148.7,176.2 L 146.9,176.0 L 145.1,175.8 L 143.2,175.6 L 141.4,175.4 L 139.5,175.2 L 137.7,175.0 L 135.8,174.8 L 133.9,174.6 L 132.0,174.4 L 130.2,174.2 L 128.3,174.0 L 126.4,173.8 L 124.5,173.6 L 122.6,173.4 L 120.7,173.2 L 118.8,173.0 L 116.8,172.8 L 114.9,172.6 L 113.0,172.4 L 111.0,172.2 L 109.1,172.0 L 107.2,171.8 L 105.2,171.6 L 103.2,171.4 L 101.3,171.2 L 99.3,171.0 L 97.3,170.9 L 95.4,170.7 L 93.4,170.5 L 91.4,170.3" fill="none" stroke="#dc2626" stroke-width="3.2"/>
<circle cx="275.5" cy="193.3" r="7" fill="#fff" stroke="#111" stroke-width="2.4"/>
<text x="287.51953333333336" y="181.31601481301715" text-anchor="start" font-family="Arial, Helvetica, sans-serif" font-size="12" fill="#111" font-weight="700" stroke="#ffffff" stroke-width="3" stroke-linejoin="round" paint-order="stroke">incrocio: FAR ≈ 2.3%</text>
<text x="114.06580540427645" y="105.33837389874543" text-anchor="start" font-family="Arial, Helvetica, sans-serif" font-size="13" fill="#b91c1c" font-weight="700">B migliore</text>
<text x="114.06580540427645" y="120.33837389874543" text-anchor="start" font-family="Arial, Helvetica, sans-serif" font-size="11.5" fill="#333">(sicurezza alta)</text>
<text x="428.5399048116872" y="373.7918733928766" text-anchor="end" font-family="Arial, Helvetica, sans-serif" font-size="13" fill="#2563eb" font-weight="700">A migliore</text>
<text x="428.5399048116872" y="388.7918733928766" text-anchor="end" font-family="Arial, Helvetica, sans-serif" font-size="11.5" fill="#333">(comodità)</text>
<text x="98" y="442" text-anchor="start" font-family="Arial, Helvetica, sans-serif" font-size="12.5" fill="#166534" font-weight="700">↙ migliore</text>
<rect x="240" y="110" width="18" height="5" fill="#2563eb"/>
<text x="264" y="117" text-anchor="start" font-family="Arial, Helvetica, sans-serif" font-size="12" fill="#2563eb" font-weight="700">Sistema A: AUC = 0.983</text>
<rect x="240" y="130" width="18" height="5" fill="#dc2626"/>
<text x="264" y="137" text-anchor="start" font-family="Arial, Helvetica, sans-serif" font-size="12" fill="#dc2626" font-weight="700">Sistema B: AUC = 0.937</text>
<text x="740.0" y="104" text-anchor="middle" font-family="Arial, Helvetica, sans-serif" font-size="14" fill="#111" font-weight="700">FRR a FAR fissata</text>
<line x1="600" y1="450.0" x2="880" y2="450.0" stroke="#e5e7eb"/>
<text x="594" y="454" text-anchor="end" font-family="Arial, Helvetica, sans-serif" font-size="11" fill="#333">0%</text>
<line x1="600" y1="370.0" x2="880" y2="370.0" stroke="#e5e7eb"/>
<text x="594" y="374.0" text-anchor="end" font-family="Arial, Helvetica, sans-serif" font-size="11" fill="#333">25%</text>
<line x1="600" y1="290.0" x2="880" y2="290.0" stroke="#e5e7eb"/>
<text x="594" y="294.0" text-anchor="end" font-family="Arial, Helvetica, sans-serif" font-size="11" fill="#333">50%</text>
<line x1="600" y1="210.0" x2="880" y2="210.0" stroke="#e5e7eb"/>
<text x="594" y="214.0" text-anchor="end" font-family="Arial, Helvetica, sans-serif" font-size="11" fill="#333">75%</text>
<line x1="600" y1="130.0" x2="880" y2="130.0" stroke="#e5e7eb"/>
<text x="594" y="134.0" text-anchor="end" font-family="Arial, Helvetica, sans-serif" font-size="11" fill="#333">100%</text>
<rect x="612.0" y="436.3" width="34.7" height="13.7" fill="#2563eb" fill-opacity="0.85"/>
<text x="629.3333333333334" y="431.2856236246753" text-anchor="middle" font-family="Arial, Helvetica, sans-serif" font-size="11.5" fill="#2563eb" font-weight="700" stroke="#ffffff" stroke-width="3" stroke-linejoin="round" paint-order="stroke">4%</text>
<rect x="650.7" y="414.1" width="34.7" height="35.9" fill="#dc2626" fill-opacity="0.85"/>
<text x="668.0" y="409.1340340556939" text-anchor="middle" font-family="Arial, Helvetica, sans-serif" font-size="11.5" fill="#dc2626" font-weight="700" stroke="#ffffff" stroke-width="3" stroke-linejoin="round" paint-order="stroke">11%</text>
<text x="646.6666666666666" y="468" text-anchor="middle" font-family="Arial, Helvetica, sans-serif" font-size="11.5" fill="#333">FAR = 10.0%</text>
<rect x="705.3" y="369.9" width="34.7" height="80.1" fill="#2563eb" fill-opacity="0.85"/>
<text x="722.6666666666667" y="364.914799189375" text-anchor="middle" font-family="Arial, Helvetica, sans-serif" font-size="11.5" fill="#2563eb" font-weight="700" stroke="#ffffff" stroke-width="3" stroke-linejoin="round" paint-order="stroke">25%</text>
<rect x="744.0" y="391.3" width="34.7" height="58.7" fill="#dc2626" fill-opacity="0.85"/>
<text x="761.3333333333334" y="386.27902944827787" text-anchor="middle" font-family="Arial, Helvetica, sans-serif" font-size="11.5" fill="#dc2626" font-weight="700" stroke="#ffffff" stroke-width="3" stroke-linejoin="round" paint-order="stroke">18%</text>
<text x="740.0" y="468" text-anchor="middle" font-family="Arial, Helvetica, sans-serif" font-size="11.5" fill="#333">FAR = 1.0%</text>
<rect x="798.7" y="278.5" width="34.7" height="171.5" fill="#2563eb" fill-opacity="0.85"/>
<text x="816.0" y="273.49641798720813" text-anchor="middle" font-family="Arial, Helvetica, sans-serif" font-size="11.5" fill="#2563eb" font-weight="700" stroke="#ffffff" stroke-width="3" stroke-linejoin="round" paint-order="stroke">54%</text>
<rect x="837.3" y="369.8" width="34.7" height="80.2" fill="#dc2626" fill-opacity="0.85"/>
<text x="854.6666666666666" y="364.8413393094448" text-anchor="middle" font-family="Arial, Helvetica, sans-serif" font-size="11.5" fill="#dc2626" font-weight="700" stroke="#ffffff" stroke-width="3" stroke-linejoin="round" paint-order="stroke">25%</text>
<text x="833.3333333333333" y="468" text-anchor="middle" font-family="Arial, Helvetica, sans-serif" font-size="11.5" fill="#333">FAR = 0.1%</text>
<line x1="600" y1="450" x2="880" y2="450" stroke="#222" stroke-width="1.5"/>
<text x="460.0" y="516" text-anchor="middle" font-family="Arial, Helvetica, sans-serif" font-size="12.5" fill="#222" font-weight="700">A ha l&#x27;AUC più alta ma a FAR = 0.1% ha 29 punti di FRR in più di B: la scelta dipende dall&#x27;applicazione, non dall&#x27;AUC.</text>
<text x="460.0" y="536" text-anchor="middle" font-family="Arial, Helvetica, sans-serif" font-size="11.5" fill="#555">A parità di FAR vince chi ha FRR inferiore; a parità di FRR chi ha FAR inferiore; senza vincoli si confrontano le AUC e le curve.</text>
</svg>