<svg xmlns="http://www.w3.org/2000/svg" width="920" height="670" viewBox="0 0 920 670">
<rect width="100%" height="100%" fill="#ffffff"/>
<text x="460.0" y="30" text-anchor="middle" font-family="Arial, Helvetica, sans-serif" font-size="20" fill="#111827" font-weight="700">Decidability d&#x27;: separazione tra distanze intra-classe e inter-classe</text>
<text x="460.0" y="53" text-anchor="middle" font-family="Arial, Helvetica, sans-serif" font-size="11.5" fill="#4b5563">D^I = stesso soggetto · D^E = soggetti diversi · d&#x27; = |media(D^E) − media(D^I)| / √((σ_I² + σ_E²)/2)</text>
<path d="M 40.00,218.00 L 40.00,217.91 L 42.08,217.89 L 44.17,217.86 L 46.25,217.84 L 48.33,217.80 L 50.42,217.76 L 52.50,217.71 L 54.58,217.66 L 56.67,217.59 L 58.75,217.52 L 60.83,217.43 L 62.92,217.32 L 65.00,217.20 L 67.08,217.06 L 69.17,216.90 L 71.25,216.72 L 73.33,216.51 L 75.42,216.26 L 77.50,215.99 L 79.58,215.67 L 81.67,215.32 L 83.75,214.91 L 85.83,214.46 L 87.92,213.95 L 90.00,213.38 L 92.08,212.75 L 94.17,212.04 L 96.25,211.26 L 98.33,210.39 L 100.42,209.44 L 102.50,208.40 L 104.58,207.25 L 106.67,206.00 L 108.75,204.65 L 110.83,203.18 L 112.92,201.59 L 115.00,199.88 L 117.08,198.05 L 119.17,196.09 L 121.25,194.01 L 123.33,191.80 L 125.42,189.46 L 127.50,187.00 L 129.58,184.42 L 131.67,181.72 L 133.75,178.91 L 135.83,175.99 L 137.92,172.98 L 140.00,169.89 L 142.08,166.72 L 144.17,163.50 L 146.25,160.22 L 148.33,156.92 L 150.42,153.60 L 152.50,150.29 L 154.58,147.00 L 156.67,143.75 L 158.75,140.56 L 160.83,137.45 L 162.92,134.45 L 165.00,131.56 L 167.08,128.83 L 169.17,126.25 L 171.25,123.85 L 173.33,121.66 L 175.42,119.68 L 177.50,117.93 L 179.58,116.42 L 181.67,115.18 L 183.75,114.20 L 185.83,113.49 L 187.92,113.06 L 190.00,112.92 L 192.08,113.06 L 194.17,113.49 L 196.25,114.20 L 198.33,115.18 L 200.42,116.42 L 202.50,117.93 L 204.58,119.68 L 206.67,121.66 L 208.75,123.85 L 210.83,126.25 L 212.92,128.83 L 215.00,131.56 L 217.08,134.45 L 219.17,137.45 L 221.25,140.56 L 223.33,143.75 L 225.42,147.00 L 227.50,150.29 L 229.58,153.60 L 231.67,156.92 L 233.75,160.22 L 235.83,163.50 L 237.92,166.72 L 240.00,169.89 L 242.08,172.98 L 244.17,175.99 L 246.25,178.91 L 248.33,181.72 L 250.42,184.42 L 252.50,187.00 L 254.58,189.46 L 256.67,191.80 L 258.75,194.01 L 260.83,196.09 L 262.92,198.05 L 265.00,199.88 L 267.08,201.59 L 269.17,203.18 L 271.25,204.65 L 273.33,206.00 L 275.42,207.25 L 277.50,208.40 L 279.58,209.44 L 281.67,210.39 L 283.75,211.26 L 285.83,212.04 L 287.92,212.75 L 290.00,213.38 L 292.08,213.95 L 294.17,214.46 L 296.25,214.91 L 298.33,215.32 L 300.42,215.67 L 302.50,215.99 L 304.58,216.26 L 306.67,216.51 L 308.75,216.72 L 310.83,216.90 L 312.92,217.06 L 315.00,217.20 L 317.08,217.32 L 319.17,217.43 L 321.25,217.52 L 323.33,217.59 L 325.42,217.66 L 327.50,217.71 L 329.58,217.76 L 331.67,217.80 L 333.75,217.84 L 335.83,217.86 L 337.92,217.89 L 340.00,217.91 L 342.08,217.92 L 344.17,217.94 L 346.25,217.95 L 348.33,217.96 L 350.42,217.97 L 352.50,217.97 L 354.58,217.98 L 356.67,217.98 L 358.75,217.99 L 360.83,217.99 L 362.92,217.99 L 365.00,217.99 L 367.08,217.99 L 369.17,218.00 L 371.25,218.00 L 373.33,218.00 L 375.42,218.00 L 377.50,218.00 L 379.58,218.00 L 381.67,218.00 L 383.75,218.00 L 385.83,218.00 L 387.92,218.00 L 390.00,218.00 L 392.08,218.00 L 394.17,218.00 L 396.25,218.00 L 398.33,218.00 L 400.42,218.00 L 402.50,218.00 L 404.58,218.00 L 406.67,218.00 L 408.75,218.00 L 410.83,218.00 L 412.92,218.00 L 415.00,218.00 L 417.08,218.00 L 419.17,218.00 L 421.25,218.00 L 423.33,218.00 L 425.42,218.00 L 427.50,218.00 L 429.58,218.00 L 431.67,218.00 L 433.75,218.00 L 435.83,218.00 L 437.92,218.00 L 440.00,218.00 L 442.08,218.00 L 444.17,218.00 L 446.25,218.00 L 448.33,218.00 L 450.42,218.00 L 452.50,218.00 L 454.58,218.00 L 456.67,218.00 L 458.75,218.00 L 460.83,218.00 L 462.92,218.00 L 465.00,218.00 L 467.08,218.00 L 469.17,218.00 L 471.25,218.00 L 473.33,218.00 L 475.42,218.00 L 477.50,218.00 L 479.58,218.00 L 481.67,218.00 L 483.75,218.00 L 485.83,218.00 L 487.92,218.00 L 490.00,218.00 L 492.08,218.00 L 494.17,218.00 L 496.25,218.00 L 498.33,218.00 L 500.42,218.00 L 502.50,218.00 L 504.58,218.00 L 506.67,218.00 L 508.75,218.00 L 510.83,218.00 L 512.92,218.00 L 515.00,218.00 L 517.08,218.00 L 519.17,218.00 L 521.25,218.00 L 523.33,218.00 L 525.42,218.00 L 527.50,218.00 L 529.58,218.00 L 531.67,218.00 L 533.75,218.00 L 535.83,218.00 L 537.92,218.00 L 540.00,218.00 L 540.00,218.00 Z" fill="#16a34a" fill-opacity="0.15"/>
<path d="M 40.00,218.00 L 40.00,218.00 L 42.08,218.00 L 44.17,218.00 L 46.25,218.00 L 48.33,218.00 L 50.42,218.00 L 52.50,218.00 L 54.58,218.00 L 56.67,218.00 L 58.75,218.00 L 60.83,218.00 L 62.92,218.00 L 65.00,218.00 L 67.08,218.00 L 69.17,218.00 L 71.25,218.00 L 73.33,217.99 L 75.42,217.99 L 77.50,217.99 L 79.58,217.99 L 81.67,217.99 L 83.75,217.98 L 85.83,217.98 L 87.92,217.97 L 90.00,217.96 L 92.08,217.96 L 94.17,217.95 L 96.25,217.93 L 98.33,217.92 L 100.42,217.90 L 102.50,217.88 L 104.58,217.86 L 106.67,217.83 L 108.75,217.79 L 110.83,217.75 L 112.92,217.70 L 115.00,217.65 L 117.08,217.58 L 119.17,217.50 L 121.25,217.41 L 123.33,217.30 L 125.42,217.18 L 127.50,217.03 L 129.58,216.87 L 131.67,216.68 L 133.75,216.46 L 135.83,216.21 L 137.92,215.93 L 140.00,215.60 L 142.08,215.24 L 144.17,214.83 L 146.25,214.36 L 148.33,213.84 L 150.42,213.26 L 152.50,212.61 L 154.58,211.89 L 156.67,211.09 L 158.75,210.21 L 160.83,209.24 L 162.92,208.18 L 165.00,207.01 L 167.08,205.74 L 169.17,204.36 L 171.25,202.87 L 173.33,201.26 L 175.42,199.53 L 177.50,197.67 L 179.58,195.69 L 181.67,193.58 L 183.75,191.34 L 185.83,188.98 L 187.92,186.49 L 190.00,183.89 L 192.08,181.16 L 194.17,178.33 L 196.25,175.40 L 198.33,172.37 L 200.42,169.26 L 202.50,166.08 L 204.58,162.85 L 206.67,159.57 L 208.75,156.26 L 210.83,152.94 L 212.92,149.63 L 215.00,146.34 L 217.08,143.10 L 219.17,139.93 L 221.25,136.84 L 223.33,133.86 L 225.42,131.00 L 227.50,128.30 L 229.58,125.76 L 231.67,123.40 L 233.75,121.24 L 235.83,119.31 L 237.92,117.61 L 240.00,116.15 L 242.08,114.96 L 244.17,114.03 L 246.25,113.38 L 248.33,113.01 L 250.42,112.93 L 252.50,113.13 L 254.58,113.61 L 256.67,114.37 L 258.75,115.41 L 260.83,116.71 L 262.92,118.26 L 265.00,120.06 L 267.08,122.08 L 269.17,124.32 L 271.25,126.75 L 273.33,129.36 L 275.42,132.13 L 277.50,135.04 L 279.58,138.06 L 281.67,141.19 L 283.75,144.39 L 285.83,147.65 L 287.92,150.95 L 290.00,154.27 L 292.08,157.58 L 294.17,160.88 L 296.25,164.15 L 298.33,167.36 L 300.42,170.52 L 302.50,173.59 L 304.58,176.58 L 306.67,179.48 L 308.75,182.27 L 310.83,184.94 L 312.92,187.50 L 315.00,189.94 L 317.08,192.25 L 319.17,194.44 L 321.25,196.50 L 323.33,198.43 L 325.42,200.23 L 327.50,201.92 L 329.58,203.48 L 331.67,204.93 L 333.75,206.26 L 335.83,207.49 L 337.92,208.61 L 340.00,209.64 L 342.08,210.57 L 344.17,211.42 L 346.25,212.19 L 348.33,212.88 L 350.42,213.50 L 352.50,214.06 L 354.58,214.56 L 356.67,215.00 L 358.75,215.39 L 360.83,215.74 L 362.92,216.05 L 365.00,216.31 L 367.08,216.55 L 369.17,216.76 L 371.25,216.94 L 373.33,217.09 L 375.42,217.23 L 377.50,217.35 L 379.58,217.45 L 381.67,217.53 L 383.75,217.61 L 385.83,217.67 L 387.92,217.72 L 390.00,217.77 L 392.08,217.81 L 394.17,217.84 L 396.25,217.87 L 398.33,217.89 L 400.42,217.91 L 402.50,217.93 L 404.58,217.94 L 406.67,217.95 L 408.75,217.96 L 410.83,217.97 L 412.92,217.97 L 415.00,217.98 L 417.08,217.98 L 419.17,217.99 L 421.25,217.99 L 423.33,217.99 L 425.42,217.99 L 427.50,217.99 L 429.58,218.00 L 431.67,218.00 L 433.75,218.00 L 435.83,218.00 L 437.92,218.00 L 440.00,218.00 L 442.08,218.00 L 444.17,218.00 L 446.25,218.00 L 448.33,218.00 L 450.42,218.00 L 452.50,218.00 L 454.58,218.00 L 456.67,218.00 L 458.75,218.00 L 460.83,218.00 L 462.92,218.00 L 465.00,218.00 L 467.08,218.00 L 469.17,218.00 L 471.25,218.00 L 473.33,218.00 L 475.42,218.00 L 477.50,218.00 L 479.58,218.00 L 481.67,218.00 L 483.75,218.00 L 485.83,218.00 L 487.92,218.00 L 490.00,218.00 L 492.08,218.00 L 494.17,218.00 L 496.25,218.00 L 498.33,218.00 L 500.42,218.00 L 502.50,218.00 L 504.58,218.00 L 506.67,218.00 L 508.75,218.00 L 510.83,218.00 L 512.92,218.00 L 515.00,218.00 L 517.08,218.00 L 519.17,218.00 L 521.25,218.00 L 523.33,218.00 L 525.42,218.00 L 527.50,218.00 L 529.58,218.00 L 531.67,218.00 L 533.75,218.00 L 535.83,218.00 L 537.92,218.00 L 540.00,218.00 L 540.00,218.00 Z" fill="#2563eb" fill-opacity="0.15"/>
<path d="M 220.00,218.00 L 220.00,138.68 L 221.33,140.68 L 222.67,142.72 L 224.00,144.78 L 225.33,146.87 L 226.67,148.97 L 228.00,151.08 L 229.33,153.20 L 230.67,155.33 L 232.00,157.45 L 233.33,159.57 L 234.67,161.67 L 236.00,163.76 L 237.33,165.83 L 238.67,167.87 L 240.00,169.89 L 241.33,171.88 L 242.67,173.84 L 244.00,175.76 L 245.33,177.64 L 246.67,179.48 L 248.00,181.27 L 249.33,183.03 L 250.67,184.73 L 252.00,186.39 L 253.33,188.00 L 254.67,189.56 L 256.00,191.06 L 257.33,192.52 L 258.67,193.92 L 260.00,195.28 L 261.33,196.57 L 262.67,197.82 L 264.00,199.02 L 265.33,200.16 L 266.67,201.26 L 268.00,202.30 L 269.33,203.30 L 270.67,204.25 L 272.00,205.15 L 273.33,206.00 L 274.67,206.82 L 276.00,207.58 L 277.33,208.31 L 278.67,208.99 L 280.00,209.64 L 281.33,210.25 L 282.67,210.82 L 284.00,211.36 L 285.33,211.86 L 286.67,212.33 L 288.00,212.77 L 289.33,213.19 L 290.67,213.57 L 292.00,213.93 L 293.33,214.26 L 294.67,214.57 L 296.00,214.86 L 297.33,215.13 L 298.67,215.38 L 300.00,215.60 L 301.33,215.82 L 302.67,216.01 L 304.00,216.19 L 305.33,216.35 L 306.67,216.51 L 308.00,216.65 L 309.33,216.77 L 310.67,216.89 L 312.00,217.00 L 313.33,217.09 L 314.67,217.18 L 316.00,217.26 L 317.33,217.34 L 318.67,217.40 L 320.00,217.47 L 321.33,217.52 L 322.67,217.57 L 324.00,217.62 L 325.33,217.66 L 326.67,217.69 L 328.00,217.73 L 329.33,217.76 L 330.67,217.78 L 332.00,217.81 L 333.33,217.83 L 334.67,217.85 L 336.00,217.87 L 337.33,217.88 L 338.67,217.89 L 340.00,217.91 L 341.33,217.92 L 342.67,217.93 L 344.00,217.94 L 345.33,217.94 L 346.67,217.95 L 348.00,217.96 L 349.33,217.96 L 350.67,217.97 L 352.00,217.97 L 353.33,217.97 L 354.67,217.98 L 356.00,217.98 L 357.33,217.98 L 358.67,217.99 L 360.00,217.99 L 361.33,217.99 L 362.67,217.99 L 364.00,217.99 L 365.33,217.99 L 366.67,217.99 L 368.00,217.99 L 369.33,218.00 L 370.67,218.00 L 372.00,218.00 L 373.33,218.00 L 374.67,218.00 L 376.00,218.00 L 377.33,218.00 L 378.67,218.00 L 380.00,218.00 L 381.33,218.00 L 382.67,218.00 L 384.00,218.00 L 385.33,218.00 L 386.67,218.00 L 388.00,218.00 L 389.33,218.00 L 390.67,218.00 L 392.00,218.00 L 393.33,218.00 L 394.67,218.00 L 396.00,218.00 L 397.33,218.00 L 398.67,218.00 L 400.00,218.00 L 401.33,218.00 L 402.67,218.00 L 404.00,218.00 L 405.33,218.00 L 406.67,218.00 L 408.00,218.00 L 409.33,218.00 L 410.67,218.00 L 412.00,218.00 L 413.33,218.00 L 414.67,218.00 L 416.00,218.00 L 417.33,218.00 L 418.67,218.00 L 420.00,218.00 L 421.33,218.00 L 422.67,218.00 L 424.00,218.00 L 425.33,218.00 L 426.67,218.00 L 428.00,218.00 L 429.33,218.00 L 430.67,218.00 L 432.00,218.00 L 433.33,218.00 L 434.67,218.00 L 436.00,218.00 L 437.33,218.00 L 438.67,218.00 L 440.00,218.00 L 441.33,218.00 L 442.67,218.00 L 444.00,218.00 L 445.33,218.00 L 446.67,218.00 L 448.00,218.00 L 449.33,218.00 L 450.67,218.00 L 452.00,218.00 L 453.33,218.00 L 454.67,218.00 L 456.00,218.00 L 457.33,218.00 L 458.67,218.00 L 460.00,218.00 L 461.33,218.00 L 462.67,218.00 L 464.00,218.00 L 465.33,218.00 L 466.67,218.00 L 468.00,218.00 L 469.33,218.00 L 470.67,218.00 L 472.00,218.00 L 473.33,218.00 L 474.67,218.00 L 476.00,218.00 L 477.33,218.00 L 478.67,218.00 L 480.00,218.00 L 481.33,218.00 L 482.67,218.00 L 484.00,218.00 L 485.33,218.00 L 486.67,218.00 L 488.00,218.00 L 489.33,218.00 L 490.67,218.00 L 492.00,218.00 L 493.33,218.00 L 494.67,218.00 L 496.00,218.00 L 497.33,218.00 L 498.67,218.00 L 500.00,218.00 L 501.33,218.00 L 502.67,218.00 L 504.00,218.00 L 505.33,218.00 L 506.67,218.00 L 508.00,218.00 L 509.33,218.00 L 510.67,218.00 L 512.00,218.00 L 513.33,218.00 L 514.67,218.00 L 516.00,218.00 L 517.33,218.00 L 518.67,218.00 L 520.00,218.00 L 521.33,218.00 L 522.67,218.00 L 524.00,218.00 L 525.33,218.00 L 526.67,218.00 L 528.00,218.00 L 529.33,218.00 L 530.67,218.00 L 532.00,218.00 L 533.33,218.00 L 534.67,218.00 L 536.00,218.00 L 537.33,218.00 L 538.67,218.00 L 540.00,218.00 L 540.00,218.00 Z" fill="#f59e0b" fill-opacity="0.85"/>
<path d="M 40.00,218.00 L 40.00,218.00 L 40.75,218.00 L 41.50,218.00 L 42.25,218.00 L 43.00,218.00 L 43.75,218.00 L 44.50,218.00 L 45.25,218.00 L 46.00,218.00 L 46.75,218.00 L 47.50,218.00 L 48.25,218.00 L 49.00,218.00 L 49.75,218.00 L 50.50,218.00 L 51.25,218.00 L 52.00,218.00 L 52.75,218.00 L 53.50,218.00 L 54.25,218.00 L 55.00,218.00 L 55.75,218.00 L 56.50,218.00 L 57.25,218.00 L 58.00,218.00 L 58.75,218.00 L 59.50,218.00 L 60.25,218.00 L 61.00,218.00 L 61.75,218.00 L 62.50,218.00 L 63.25,218.00 L 64.00,218.00 L 64.75,218.00 L 65.50,218.00 L 66.25,218.00 L 67.00,218.00 L 67.75,218.00 L 68.50,218.00 L 69.25,218.00 L 70.00,218.00 L 70.75,218.00 L 71.50,218.00 L 72.25,217.99 L 73.00,217.99 L 73.75,217.99 L 74.50,217.99 L 75.25,217.99 L 76.00,217.99 L 76.75,217.99 L 77.50,217.99 L 78.25,217.99 L 79.00,217.99 L 79.75,217.99 L 80.50,217.99 L 81.25,217.99 L 82.00,217.98 L 82.75,217.98 L 83.50,217.98 L 84.25,217.98 L 85.00,217.98 L 85.75,217.98 L 86.50,217.98 L 87.25,217.97 L 88.00,217.97 L 88.75,217.97 L 89.50,217.97 L 90.25,217.96 L 91.00,217.96 L 91.75,217.96 L 92.50,217.95 L 93.25,217.95 L 94.00,217.95 L 94.75,217.94 L 95.50,217.94 L 96.25,217.93 L 97.00,217.93 L 97.75,217.92 L 98.50,217.92 L 99.25,217.91 L 100.00,217.91 L 100.75,217.90 L 101.50,217.89 L 102.25,217.89 L 103.00,217.88 L 103.75,217.87 L 104.50,217.86 L 105.25,217.85 L 106.00,217.84 L 106.75,217.83 L 107.50,217.82 L 108.25,217.80 L 109.00,217.79 L 109.75,217.78 L 110.50,217.76 L 111.25,217.74 L 112.00,217.73 L 112.75,217.71 L 113.50,217.69 L 114.25,217.67 L 115.00,217.65 L 115.75,217.62 L 116.50,217.60 L 117.25,217.57 L 118.00,217.55 L 118.75,217.52 L 119.50,217.49 L 120.25,217.45 L 121.00,217.42 L 121.75,217.38 L 122.50,217.35 L 123.25,217.31 L 124.00,217.26 L 124.75,217.22 L 125.50,217.17 L 126.25,217.12 L 127.00,217.07 L 127.75,217.02 L 128.50,216.96 L 129.25,216.90 L 130.00,216.83 L 130.75,216.77 L 131.50,216.69 L 132.25,216.62 L 133.00,216.54 L 133.75,216.46 L 134.50,216.37 L 135.25,216.28 L 136.00,216.19 L 136.75,216.09 L 137.50,215.99 L 138.25,215.88 L 139.00,215.76 L 139.75,215.65 L 140.50,215.52 L 141.25,215.39 L 142.00,215.26 L 142.75,215.11 L 143.50,214.96 L 144.25,214.81 L 145.00,214.65 L 145.75,214.48 L 146.50,214.30 L 147.25,214.12 L 148.00,213.93 L 148.75,213.73 L 149.50,213.53 L 150.25,213.31 L 151.00,213.09 L 151.75,212.85 L 152.50,212.61 L 153.25,212.36 L 154.00,212.10 L 154.75,211.83 L 155.50,211.55 L 156.25,211.26 L 157.00,210.96 L 157.75,210.65 L 158.50,210.32 L 159.25,209.99 L 160.00,209.64 L 160.75,209.28 L 161.50,208.91 L 162.25,208.53 L 163.00,208.13 L 163.75,207.72 L 164.50,207.30 L 165.25,206.86 L 166.00,206.42 L 166.75,205.95 L 167.50,205.47 L 168.25,204.98 L 169.00,204.48 L 169.75,203.96 L 170.50,203.42 L 171.25,202.87 L 172.00,202.30 L 172.75,201.72 L 173.50,201.12 L 174.25,200.51 L 175.00,199.88 L 175.75,199.24 L 176.50,198.58 L 177.25,197.90 L 178.00,197.21 L 178.75,196.50 L 179.50,195.77 L 180.25,195.03 L 181.00,194.27 L 181.75,193.49 L 182.50,192.70 L 183.25,191.89 L 184.00,191.06 L 184.75,190.22 L 185.50,189.36 L 186.25,188.49 L 187.00,187.60 L 187.75,186.70 L 188.50,185.77 L 189.25,184.84 L 190.00,183.89 L 190.75,182.92 L 191.50,181.94 L 192.25,180.94 L 193.00,179.93 L 193.75,178.91 L 194.50,177.87 L 195.25,176.82 L 196.00,175.76 L 196.75,174.68 L 197.50,173.59 L 198.25,172.50 L 199.00,171.39 L 199.75,170.27 L 200.50,169.14 L 201.25,168.00 L 202.00,166.85 L 202.75,165.70 L 203.50,164.54 L 204.25,163.37 L 205.00,162.19 L 205.75,161.01 L 206.50,159.83 L 207.25,158.64 L 208.00,157.45 L 208.75,156.26 L 209.50,155.06 L 210.25,153.87 L 211.00,152.67 L 211.75,151.48 L 212.50,150.29 L 213.25,149.10 L 214.00,147.92 L 214.75,146.73 L 215.50,145.56 L 216.25,144.39 L 217.00,143.23 L 217.75,142.08 L 218.50,140.94 L 219.25,139.80 L 220.00,138.68 L 220.00,218.00 Z" fill="#dc2626" fill-opacity="0.85"/>
<path d="M 40.00,217.91 L 42.08,217.89 L 44.17,217.86 L 46.25,217.84 L 48.33,217.80 L 50.42,217.76 L 52.50,217.71 L 54.58,217.66 L 56.67,217.59 L 58.75,217.52 L 60.83,217.43 L 62.92,217.32 L 65.00,217.20 L 67.08,217.06 L 69.17,216.90 L 71.25,216.72 L 73.33,216.51 L 75.42,216.26 L 77.50,215.99 L 79.58,215.67 L 81.67,215.32 L 83.75,214.91 L 85.83,214.46 L 87.92,213.95 L 90.00,213.38 L 92.08,212.75 L 94.17,212.04 L 96.25,211.26 L 98.33,210.39 L 100.42,209.44 L 102.50,208.40 L 104.58,207.25 L 106.67,206.00 L 108.75,204.65 L 110.83,203.18 L 112.92,201.59 L 115.00,199.88 L 117.08,198.05 L 119.17,196.09 L 121.25,194.01 L 123.33,191.80 L 125.42,189.46 L 127.50,187.00 L 129.58,184.42 L 131.67,181.72 L 133.75,178.91 L 135.83,175.99 L 137.92,172.98 L 140.00,169.89 L 142.08,166.72 L 144.17,163.50 L 146.25,160.22 L 148.33,156.92 L 150.42,153.60 L 152.50,150.29 L 154.58,147.00 L 156.67,143.75 L 158.75,140.56 L 160.83,137.45 L 162.92,134.45 L 165.00,131.56 L 167.08,128.83 L 169.17,126.25 L 171.25,123.85 L 173.33,121.66 L 175.42,119.68 L 177.50,117.93 L 179.58,116.42 L 181.67,115.18 L 183.75,114.20 L 185.83,113.49 L 187.92,113.06 L 190.00,112.92 L 192.08,113.06 L 194.17,113.49 L 196.25,114.20 L 198.33,115.18 L 200.42,116.42 L 202.50,117.93 L 204.58,119.68 L 206.67,121.66 L 208.75,123.85 L 210.83,126.25 L 212.92,128.83 L 215.00,131.56 L 217.08,134.45 L 219.17,137.45 L 221.25,140.56 L 223.33,143.75 L 225.42,147.00 L 227.50,150.29 L 229.58,153.60 L 231.67,156.92 L 233.75,160.22 L 235.83,163.50 L 237.92,166.72 L 240.00,169.89 L 242.08,172.98 L 244.17,175.99 L 246.25,178.91 L 248.33,181.72 L 250.42,184.42 L 252.50,187.00 L 254.58,189.46 L 256.67,191.80 L 258.75,194.01 L 260.83,196.09 L 262.92,198.05 L 265.00,199.88 L 267.08,201.59 L 269.17,203.18 L 271.25,204.65 L 273.33,206.00 L 275.42,207.25 L 277.50,208.40 L 279.58,209.44 L 281.67,210.39 L 283.75,211.26 L 285.83,212.04 L 287.92,212.75 L 290.00,213.38 L 292.08,213.95 L 294.17,214.46 L 296.25,214.91 L 298.33,215.32 L 300.42,215.67 L 302.50,215.99 L 304.58,216.26 L 306.67,216.51 L 308.75,216.72 L 310.83,216.90 L 312.92,217.06 L 315.00,217.20 L 317.08,217.32 L 319.17,217.43 L 321.25,217.52 L 323.33,217.59 L 325.42,217.66 L 327.50,217.71 L 329.58,217.76 L 331.67,217.80 L 333.75,217.84 L 335.83,217.86 L 337.92,217.89 L 340.00,217.91 L 342.08,217.92 L 344.17,217.94 L 346.25,217.95 L 348.33,217.96 L 350.42,217.97 L 352.50,217.97 L 354.58,217.98 L 356.67,217.98 L 358.75,217.99 L 360.83,217.99 L 362.92,217.99 L 365.00,217.99 L 367.08,217.99 L 369.17,218.00 L 371.25,218.00 L 373.33,218.00 L 375.42,218.00 L 377.50,218.00 L 379.58,218.00 L 381.67,218.00 L 383.75,218.00 L 385.83,218.00 L 387.92,218.00 L 390.00,218.00 L 392.08,218.00 L 394.17,218.00 L 396.25,218.00 L 398.33,218.00 L 400.42,218.00 L 402.50,218.00 L 404.58,218.00 L 406.67,218.00 L 408.75,218.00 L 410.83,218.00 L 412.92,218.00 L 415.00,218.00 L 417.08,218.00 L 419.17,218.00 L 421.25,218.00 L 423.33,218.00 L 425.42,218.00 L 427.50,218.00 L 429.58,218.00 L 431.67,218.00 L 433.75,218.00 L 435.83,218.00 L 437.92,218.00 L 440.00,218.00 L 442.08,218.00 L 444.17,218.00 L 446.25,218.00 L 448.33,218.00 L 450.42,218.00 L 452.50,218.00 L 454.58,218.00 L 456.67,218.00 L 458.75,218.00 L 460.83,218.00 L 462.92,218.00 L 465.00,218.00 L 467.08,218.00 L 469.17,218.00 L 471.25,218.00 L 473.33,218.00 L 475.42,218.00 L 477.50,218.00 L 479.58,218.00 L 481.67,218.00 L 483.75,218.00 L 485.83,218.00 L 487.92,218.00 L 490.00,218.00 L 492.08,218.00 L 494.17,218.00 L 496.25,218.00 L 498.33,218.00 L 500.42,218.00 L 502.50,218.00 L 504.58,218.00 L 506.67,218.00 L 508.75,218.00 L 510.83,218.00 L 512.92,218.00 L 515.00,218.00 L 517.08,218.00 L 519.17,218.00 L 521.25,218.00 L 523.33,218.00 L 525.42,218.00 L 527.50,218.00 L 529.58,218.00 L 531.67,218.00 L 533.75,218.00 L 535.83,218.00 L 537.92,218.00 L 540.00,218.00" fill="none" stroke="#16a34a" stroke-width="2.4"/>
<path d="M 40.00,218.00 L 42.08,218.00 L 44.17,218.00 L 46.25,218.00 L 48.33,218.00 L 50.42,218.00 L 52.50,218.00 L 54.58,218.00 L 56.67,218.00 L 58.75,218.00 L 60.83,218.00 L 62.92,218.00 L 65.00,218.00 L 67.08,218.00 L 69.17,218.00 L 71.25,218.00 L 73.33,217.99 L 75.42,217.99 L 77.50,217.99 L 79.58,217.99 L 81.67,217.99 L 83.75,217.98 L 85.83,217.98 L 87.92,217.97 L 90.00,217.96 L 92.08,217.96 L 94.17,217.95 L 96.25,217.93 L 98.33,217.92 L 100.42,217.90 L 102.50,217.88 L 104.58,217.86 L 106.67,217.83 L 108.75,217.79 L 110.83,217.75 L 112.92,217.70 L 115.00,217.65 L 117.08,217.58 L 119.17,217.50 L 121.25,217.41 L 123.33,217.30 L 125.42,217.18 L 127.50,217.03 L 129.58,216.87 L 131.67,216.68 L 133.75,216.46 L 135.83,216.21 L 137.92,215.93 L 140.00,215.60 L 142.08,215.24 L 144.17,214.83 L 146.25,214.36 L 148.33,213.84 L 150.42,213.26 L 152.50,212.61 L 154.58,211.89 L 156.67,211.09 L 158.75,210.21 L 160.83,209.24 L 162.92,208.18 L 165.00,207.01 L 167.08,205.74 L 169.17,204.36 L 171.25,202.87 L 173.33,201.26 L 175.42,199.53 L 177.50,197.67 L 179.58,195.69 L 181.67,193.58 L 183.75,191.34 L 185.83,188.98 L 187.92,186.49 L 190.00,183.89 L 192.08,181.16 L 194.17,178.33 L 196.25,175.40 L 198.33,172.37 L 200.42,169.26 L 202.50,166.08 L 204.58,162.85 L 206.67,159.57 L 208.75,156.26 L 210.83,152.94 L 212.92,149.63 L 215.00,146.34 L 217.08,143.10 L 219.17,139.93 L 221.25,136.84 L 223.33,133.86 L 225.42,131.00 L 227.50,128.30 L 229.58,125.76 L 231.67,123.40 L 233.75,121.24 L 235.83,119.31 L 237.92,117.61 L 240.00,116.15 L 242.08,114.96 L 244.17,114.03 L 246.25,113.38 L 248.33,113.01 L 250.42,112.93 L 252.50,113.13 L 254.58,113.61 L 256.67,114.37 L 258.75,115.41 L 260.83,116.71 L 262.92,118.26 L 265.00,120.06 L 267.08,122.08 L 269.17,124.32 L 271.25,126.75 L 273.33,129.36 L 275.42,132.13 L 277.50,135.04 L 279.58,138.06 L 281.67,141.19 L 283.75,144.39 L 285.83,147.65 L 287.92,150.95 L 290.00,154.27 L 292.08,157.58 L 294.17,160.88 L 296.25,164.15 L 298.33,167.36 L 300.42,170.52 L 302.50,173.59 L 304.58,176.58 L 306.67,179.48 L 308.75,182.27 L 310.83,184.94 L 312.92,187.50 L 315.00,189.94 L 317.08,192.25 L 319.17,194.44 L 321.25,196.50 L 323.33,198.43 L 325.42,200.23 L 327.50,201.92 L 329.58,203.48 L 331.67,204.93 L 333.75,206.26 L 335.83,207.49 L 337.92,208.61 L 340.00,209.64 L 342.08,210.57 L 344.17,211.42 L 346.25,212.19 L 348.33,212.88 L 350.42,213.50 L 352.50,214.06 L 354.58,214.56 L 356.67,215.00 L 358.75,215.39 L 360.83,215.74 L 362.92,216.05 L 365.00,216.31 L 367.08,216.55 L 369.17,216.76 L 371.25,216.94 L 373.33,217.09 L 375.42,217.23 L 377.50,217.35 L 379.58,217.45 L 381.67,217.53 L 383.75,217.61 L 385.83,217.67 L 387.92,217.72 L 390.00,217.77 L 392.08,217.81 L 394.17,217.84 L 396.25,217.87 L 398.33,217.89 L 400.42,217.91 L 402.50,217.93 L 404.58,217.94 L 406.67,217.95 L 408.75,217.96 L 410.83,217.97 L 412.92,217.97 L 415.00,217.98 L 417.08,217.98 L 419.17,217.99 L 421.25,217.99 L 423.33,217.99 L 425.42,217.99 L 427.50,217.99 L 429.58,218.00 L 431.67,218.00 L 433.75,218.00 L 435.83,218.00 L 437.92,218.00 L 440.00,218.00 L 442.08,218.00 L 444.17,218.00 L 446.25,218.00 L 448.33,218.00 L 450.42,218.00 L 452.50,218.00 L 454.58,218.00 L 456.67,218.00 L 458.75,218.00 L 460.83,218.00 L 462.92,218.00 L 465.00,218.00 L 467.08,218.00 L 469.17,218.00 L 471.25,218.00 L 473.33,218.00 L 475.42,218.00 L 477.50,218.00 L 479.58,218.00 L 481.67,218.00 L 483.75,218.00 L 485.83,218.00 L 487.92,218.00 L 490.00,218.00 L 492.08,218.00 L 494.17,218.00 L 496.25,218.00 L 498.33,218.00 L 500.42,218.00 L 502.50,218.00 L 504.58,218.00 L 506.67,218.00 L 508.75,218.00 L 510.83,218.00 L 512.92,218.00 L 515.00,218.00 L 517.08,218.00 L 519.17,218.00 L 521.25,218.00 L 523.33,218.00 L 525.42,218.00 L 527.50,218.00 L 529.58,218.00 L 531.67,218.00 L 533.75,218.00 L 535.83,218.00 L 537.92,218.00 L 540.00,218.00" fill="none" stroke="#2563eb" stroke-width="2.4"/>
<line x1="40" y1="218" x2="540" y2="218" stroke="#222" stroke-width="1.3"/>
<line x1="220.0" y1="108" x2="220.0" y2="218" stroke="#111" stroke-width="1.5" stroke-dasharray="5,4"/>
<text x="46" y="114" text-anchor="start" font-family="Arial, Helvetica, sans-serif" font-size="15" fill="#111" font-weight="700">d&#x27; = 1.5</text>
<text x="46" y="132" text-anchor="start" font-family="Arial, Helvetica, sans-serif" font-size="12.5" fill="#b91c1c" font-weight="700">EER = 22.66%</text>
<line x1="193.0" y1="234" x2="247.0" y2="234" stroke="#555" stroke-width="1.4" stroke-linecap="round"/>
<line x1="247.0" y1="234" x2="241.93" y2="237.21" stroke="#555" stroke-width="1.4" stroke-linecap="round"/>
<line x1="247.0" y1="234" x2="241.93" y2="230.79" stroke="#555" stroke-width="1.4" stroke-linecap="round"/>
<line x1="247.0" y1="234" x2="193.0" y2="234" stroke="#555" stroke-width="1.4" stroke-linecap="round"/>
<line x1="193.0" y1="234" x2="198.07" y2="230.79" stroke="#555" stroke-width="1.4" stroke-linecap="round"/>
<line x1="193.0" y1="234" x2="198.07" y2="237.21" stroke="#555" stroke-width="1.4" stroke-linecap="round"/>
<text x="220.0" y="249" text-anchor="middle" font-family="Arial, Helvetica, sans-serif" font-size="11.5" fill="#333">Δμ = 1.5·σ = 0.12</text>
<text x="184.0" y="130" text-anchor="end" font-family="Arial, Helvetica, sans-serif" font-size="13" fill="#166534" font-weight="700" stroke="#ffffff" stroke-width="3" stroke-linejoin="round" paint-order="stroke">D^I</text>
<text x="256.0" y="130" text-anchor="start" font-family="Arial, Helvetica, sans-serif" font-size="13" fill="#2563eb" font-weight="700" stroke="#ffffff" stroke-width="3" stroke-linejoin="round" paint-order="stroke">D^E</text>
<path d="M 40.00,382.00 L 40.00,381.91 L 42.08,381.89 L 44.17,381.86 L 46.25,381.84 L 48.33,381.80 L 50.42,381.76 L 52.50,381.71 L 54.58,381.66 L 56.67,381.59 L 58.75,381.52 L 60.83,381.43 L 62.92,381.32 L 65.00,381.20 L 67.08,381.06 L 69.17,380.90 L 71.25,380.72 L 73.33,380.51 L 75.42,380.26 L 77.50,379.99 L 79.58,379.67 L 81.67,379.32 L 83.75,378.91 L 85.83,378.46 L 87.92,377.95 L 90.00,377.38 L 92.08,376.75 L 94.17,376.04 L 96.25,375.26 L 98.33,374.39 L 100.42,373.44 L 102.50,372.40 L 104.58,371.25 L 106.67,370.00 L 108.75,368.65 L 110.83,367.18 L 112.92,365.59 L 115.00,363.88 L 117.08,362.05 L 119.17,360.09 L 121.25,358.01 L 123.33,355.80 L 125.42,353.46 L 127.50,351.00 L 129.58,348.42 L 131.67,345.72 L 133.75,342.91 L 135.83,339.99 L 137.92,336.98 L 140.00,333.89 L 142.08,330.72 L 144.17,327.50 L 146.25,324.22 L 148.33,320.92 L 150.42,317.60 L 152.50,314.29 L 154.58,311.00 L 156.67,307.75 L 158.75,304.56 L 160.83,301.45 L 162.92,298.45 L 165.00,295.56 L 167.08,292.83 L 169.17,290.25 L 171.25,287.85 L 173.33,285.66 L 175.42,283.68 L 177.50,281.93 L 179.58,280.42 L 181.67,279.18 L 183.75,278.20 L 185.83,277.49 L 187.92,277.06 L 190.00,276.92 L 192.08,277.06 L 194.17,277.49 L 196.25,278.20 L 198.33,279.18 L 200.42,280.42 L 202.50,281.93 L 204.58,283.68 L 206.67,285.66 L 208.75,287.85 L 210.83,290.25 L 212.92,292.83 L 215.00,295.56 L 217.08,298.45 L 219.17,301.45 L 221.25,304.56 L 223.33,307.75 L 225.42,311.00 L 227.50,314.29 L 229.58,317.60 L 231.67,320.92 L 233.75,324.22 L 235.83,327.50 L 237.92,330.72 L 240.00,333.89 L 242.08,336.98 L 244.17,339.99 L 246.25,342.91 L 248.33,345.72 L 250.42,348.42 L 252.50,351.00 L 254.58,353.46 L 256.67,355.80 L 258.75,358.01 L 260.83,360.09 L 262.92,362.05 L 265.00,363.88 L 267.08,365.59 L 269.17,367.18 L 271.25,368.65 L 273.33,370.00 L 275.42,371.25 L 277.50,372.40 L 279.58,373.44 L 281.67,374.39 L 283.75,375.26 L 285.83,376.04 L 287.92,376.75 L 290.00,377.38 L 292.08,377.95 L 294.17,378.46 L 296.25,378.91 L 298.33,379.32 L 300.42,379.67 L 302.50,379.99 L 304.58,380.26 L 306.67,380.51 L 308.75,380.72 L 310.83,380.90 L 312.92,381.06 L 315.00,381.20 L 317.08,381.32 L 319.17,381.43 L 321.25,381.52 L 323.33,381.59 L 325.42,381.66 L 327.50,381.71 L 329.58,381.76 L 331.67,381.80 L 333.75,381.84 L 335.83,381.86 L 337.92,381.89 L 340.00,381.91 L 342.08,381.92 L 344.17,381.94 L 346.25,381.95 L 348.33,381.96 L 350.42,381.97 L 352.50,381.97 L 354.58,381.98 L 356.67,381.98 L 358.75,381.99 L 360.83,381.99 L 362.92,381.99 L 365.00,381.99 L 367.08,381.99 L 369.17,382.00 L 371.25,382.00 L 373.33,382.00 L 375.42,382.00 L 377.50,382.00 L 379.58,382.00 L 381.67,382.00 L 383.75,382.00 L 385.83,382.00 L 387.92,382.00 L 390.00,382.00 L 392.08,382.00 L 394.17,382.00 L 396.25,382.00 L 398.33,382.00 L 400.42,382.00 L 402.50,382.00 L 404.58,382.00 L 406.67,382.00 L 408.75,382.00 L 410.83,382.00 L 412.92,382.00 L 415.00,382.00 L 417.08,382.00 L 419.17,382.00 L 421.25,382.00 L 423.33,382.00 L 425.42,382.00 L 427.50,382.00 L 429.58,382.00 L 431.67,382.00 L 433.75,382.00 L 435.83,382.00 L 437.92,382.00 L 440.00,382.00 L 442.08,382.00 L 444.17,382.00 L 446.25,382.00 L 448.33,382.00 L 450.42,382.00 L 452.50,382.00 L 454.58,382.00 L 456.67,382.00 L 458.75,382.00 L 460.83,382.00 L 462.92,382.00 L 465.00,382.00 L 467.08,382.00 L 469.17,382.00 L 471.25,382.00 L 473.33,382.00 L 475.42,382.00 L 477.50,382.00 L 479.58,382.00 L 481.67,382.00 L 483.75,382.00 L 485.83,382.00 L 487.92,382.00 L 490.00,382.00 L 492.08,382.00 L 494.17,382.00 L 496.25,382.00 L 498.33,382.00 L 500.42,382.00 L 502.50,382.00 L 504.58,382.00 L 506.67,382.00 L 508.75,382.00 L 510.83,382.00 L 512.92,382.00 L 515.00,382.00 L 517.08,382.00 L 519.17,382.00 L 521.25,382.00 L 523.33,382.00 L 525.42,382.00 L 527.50,382.00 L 529.58,382.00 L 531.67,382.00 L 533.75,382.00 L 535.83,382.00 L 537.92,382.00 L 540.00,382.00 L 540.00,382.00 Z" fill="#16a34a" fill-opacity="0.15"/>
<path d="M 40.00,382.00 L 40.00,382.00 L 42.08,382.00 L 44.17,382.00 L 46.25,382.00 L 48.33,382.00 L 50.42,382.00 L 52.50,382.00 L 54.58,382.00 L 56.67,382.00 L 58.75,382.00 L 60.83,382.00 L 62.92,382.00 L 65.00,382.00 L 67.08,382.00 L 69.17,382.00 L 71.25,382.00 L 73.33,382.00 L 75.42,382.00 L 77.50,382.00 L 79.58,382.00 L 81.67,382.00 L 83.75,382.00 L 85.83,382.00 L 87.92,382.00 L 90.00,382.00 L 92.08,382.00 L 94.17,382.00 L 96.25,382.00 L 98.33,382.00 L 100.42,382.00 L 102.50,382.00 L 104.58,382.00 L 106.67,382.00 L 108.75,382.00 L 110.83,382.00 L 112.92,382.00 L 115.00,382.00 L 117.08,382.00 L 119.17,382.00 L 121.25,382.00 L 123.33,382.00 L 125.42,382.00 L 127.50,382.00 L 129.58,382.00 L 131.67,381.99 L 133.75,381.99 L 135.83,381.99 L 137.92,381.99 L 140.00,381.99 L 142.08,381.98 L 144.17,381.98 L 146.25,381.98 L 148.33,381.97 L 150.42,381.96 L 152.50,381.95 L 154.58,381.94 L 156.67,381.93 L 158.75,381.92 L 160.83,381.90 L 162.92,381.88 L 165.00,381.85 L 167.08,381.82 L 169.17,381.79 L 171.25,381.74 L 173.33,381.69 L 175.42,381.63 L 177.50,381.56 L 179.58,381.48 L 181.67,381.39 L 183.75,381.28 L 185.83,381.15 L 187.92,381.00 L 190.00,380.83 L 192.08,380.64 L 194.17,380.41 L 196.25,380.16 L 198.33,379.87 L 200.42,379.54 L 202.50,379.16 L 204.58,378.74 L 206.67,378.26 L 208.75,377.73 L 210.83,377.14 L 212.92,376.47 L 215.00,375.74 L 217.08,374.92 L 219.17,374.02 L 221.25,373.04 L 223.33,371.95 L 225.42,370.77 L 227.50,369.47 L 229.58,368.07 L 231.67,366.56 L 233.75,364.92 L 235.83,363.16 L 237.92,361.28 L 240.00,359.28 L 242.08,357.14 L 244.17,354.88 L 246.25,352.49 L 248.33,349.98 L 250.42,347.35 L 252.50,344.61 L 254.58,341.75 L 256.67,338.80 L 258.75,335.76 L 260.83,332.63 L 262.92,329.44 L 265.00,326.19 L 267.08,322.91 L 269.17,319.59 L 271.25,316.28 L 273.33,312.97 L 275.42,309.69 L 277.50,306.46 L 279.58,303.30 L 281.67,300.24 L 283.75,297.28 L 285.83,294.45 L 287.92,291.77 L 290.00,289.27 L 292.08,286.95 L 294.17,284.84 L 296.25,282.95 L 298.33,281.30 L 300.42,279.89 L 302.50,278.75 L 304.58,277.88 L 306.67,277.29 L 308.75,276.97 L 310.83,276.94 L 312.92,277.20 L 315.00,277.74 L 317.08,278.56 L 319.17,279.64 L 321.25,281.00 L 323.33,282.60 L 325.42,284.44 L 327.50,286.51 L 329.58,288.79 L 331.67,291.26 L 333.75,293.90 L 335.83,296.70 L 337.92,299.63 L 340.00,302.68 L 342.08,305.82 L 344.17,309.04 L 346.25,312.31 L 348.33,315.61 L 350.42,318.93 L 352.50,322.24 L 354.58,325.54 L 356.67,328.79 L 358.75,332.00 L 360.83,335.14 L 362.92,338.20 L 365.00,341.17 L 367.08,344.04 L 369.17,346.81 L 371.25,349.46 L 373.33,352.00 L 375.42,354.41 L 377.50,356.70 L 379.58,358.86 L 381.67,360.89 L 383.75,362.80 L 385.83,364.58 L 387.92,366.24 L 390.00,367.78 L 392.08,369.20 L 394.17,370.52 L 396.25,371.72 L 398.33,372.83 L 400.42,373.83 L 402.50,374.75 L 404.58,375.58 L 406.67,376.33 L 408.75,377.01 L 410.83,377.62 L 412.92,378.16 L 415.00,378.65 L 417.08,379.08 L 419.17,379.46 L 421.25,379.80 L 423.33,380.10 L 425.42,380.36 L 427.50,380.59 L 429.58,380.80 L 431.67,380.97 L 433.75,381.12 L 435.83,381.25 L 437.92,381.37 L 440.00,381.47 L 442.08,381.55 L 444.17,381.62 L 446.25,381.68 L 448.33,381.73 L 450.42,381.78 L 452.50,381.82 L 454.58,381.85 L 456.67,381.87 L 458.75,381.90 L 460.83,381.91 L 462.92,381.93 L 465.00,381.94 L 467.08,381.95 L 469.17,381.96 L 471.25,381.97 L 473.33,381.97 L 475.42,381.98 L 477.50,381.98 L 479.58,381.99 L 481.67,381.99 L 483.75,381.99 L 485.83,381.99 L 487.92,381.99 L 490.00,382.00 L 492.08,382.00 L 494.17,382.00 L 496.25,382.00 L 498.33,382.00 L 500.42,382.00 L 502.50,382.00 L 504.58,382.00 L 506.67,382.00 L 508.75,382.00 L 510.83,382.00 L 512.92,382.00 L 515.00,382.00 L 517.08,382.00 L 519.17,382.00 L 521.25,382.00 L 523.33,382.00 L 525.42,382.00 L 527.50,382.00 L 529.58,382.00 L 531.67,382.00 L 533.75,382.00 L 535.83,382.00 L 537.92,382.00 L 540.00,382.00 L 540.00,382.00 Z" fill="#2563eb" fill-opacity="0.15"/>
<path d="M 250.00,382.00 L 250.00,347.89 L 251.21,349.41 L 252.42,350.90 L 253.62,352.34 L 254.83,353.75 L 256.04,355.11 L 257.25,356.43 L 258.46,357.71 L 259.67,358.94 L 260.88,360.13 L 262.08,361.28 L 263.29,362.39 L 264.50,363.45 L 265.71,364.48 L 266.92,365.46 L 268.12,366.40 L 269.33,367.30 L 270.54,368.16 L 271.75,368.98 L 272.96,369.77 L 274.17,370.52 L 275.38,371.23 L 276.58,371.91 L 277.79,372.55 L 279.00,373.16 L 280.21,373.74 L 281.42,374.29 L 282.62,374.80 L 283.83,375.29 L 285.04,375.75 L 286.25,376.19 L 287.46,376.60 L 288.67,376.98 L 289.88,377.35 L 291.08,377.69 L 292.29,378.01 L 293.50,378.30 L 294.71,378.58 L 295.92,378.85 L 297.12,379.09 L 298.33,379.32 L 299.54,379.53 L 300.75,379.73 L 301.96,379.91 L 303.17,380.08 L 304.38,380.24 L 305.58,380.38 L 306.79,380.52 L 308.00,380.65 L 309.21,380.76 L 310.42,380.87 L 311.62,380.97 L 312.83,381.06 L 314.04,381.14 L 315.25,381.22 L 316.46,381.29 L 317.67,381.36 L 318.88,381.41 L 320.08,381.47 L 321.29,381.52 L 322.50,381.56 L 323.71,381.61 L 324.92,381.64 L 326.12,381.68 L 327.33,381.71 L 328.54,381.74 L 329.75,381.77 L 330.96,381.79 L 332.17,381.81 L 333.38,381.83 L 334.58,381.85 L 335.79,381.86 L 337.00,381.88 L 338.21,381.89 L 339.42,381.90 L 340.63,381.91 L 341.83,381.92 L 343.04,381.93 L 344.25,381.94 L 345.46,381.94 L 346.67,381.95 L 347.88,381.96 L 349.08,381.96 L 350.29,381.97 L 351.50,381.97 L 352.71,381.97 L 353.92,381.98 L 355.12,381.98 L 356.33,381.98 L 357.54,381.98 L 358.75,381.99 L 359.96,381.99 L 361.17,381.99 L 362.38,381.99 L 363.58,381.99 L 364.79,381.99 L 366.00,381.99 L 367.21,381.99 L 368.42,381.99 L 369.62,382.00 L 370.83,382.00 L 372.04,382.00 L 373.25,382.00 L 374.46,382.00 L 375.67,382.00 L 376.88,382.00 L 378.08,382.00 L 379.29,382.00 L 380.50,382.00 L 381.71,382.00 L 382.92,382.00 L 384.12,382.00 L 385.33,382.00 L 386.54,382.00 L 387.75,382.00 L 388.96,382.00 L 390.17,382.00 L 391.38,382.00 L 392.58,382.00 L 393.79,382.00 L 395.00,382.00 L 396.21,382.00 L 397.42,382.00 L 398.62,382.00 L 399.83,382.00 L 401.04,382.00 L 402.25,382.00 L 403.46,382.00 L 404.67,382.00 L 405.88,382.00 L 407.08,382.00 L 408.29,382.00 L 409.50,382.00 L 410.71,382.00 L 411.92,382.00 L 413.13,382.00 L 414.33,382.00 L 415.54,382.00 L 416.75,382.00 L 417.96,382.00 L 419.17,382.00 L 420.38,382.00 L 421.58,382.00 L 422.79,382.00 L 424.00,382.00 L 425.21,382.00 L 426.42,382.00 L 427.62,382.00 L 428.83,382.00 L 430.04,382.00 L 431.25,382.00 L 432.46,382.00 L 433.67,382.00 L 434.88,382.00 L 436.08,382.00 L 437.29,382.00 L 438.50,382.00 L 439.71,382.00 L 440.92,382.00 L 442.12,382.00 L 443.33,382.00 L 444.54,382.00 L 445.75,382.00 L 446.96,382.00 L 448.17,382.00 L 449.38,382.00 L 450.58,382.00 L 451.79,382.00 L 453.00,382.00 L 454.21,382.00 L 455.42,382.00 L 456.62,382.00 L 457.83,382.00 L 459.04,382.00 L 460.25,382.00 L 461.46,382.00 L 462.67,382.00 L 463.88,382.00 L 465.08,382.00 L 466.29,382.00 L 467.50,382.00 L 468.71,382.00 L 469.92,382.00 L 471.12,382.00 L 472.33,382.00 L 473.54,382.00 L 474.75,382.00 L 475.96,382.00 L 477.17,382.00 L 478.37,382.00 L 479.58,382.00 L 480.79,382.00 L 482.00,382.00 L 483.21,382.00 L 484.42,382.00 L 485.63,382.00 L 486.83,382.00 L 488.04,382.00 L 489.25,382.00 L 490.46,382.00 L 491.67,382.00 L 492.88,382.00 L 494.08,382.00 L 495.29,382.00 L 496.50,382.00 L 497.71,382.00 L 498.92,382.00 L 500.12,382.00 L 501.33,382.00 L 502.54,382.00 L 503.75,382.00 L 504.96,382.00 L 506.17,382.00 L 507.38,382.00 L 508.58,382.00 L 509.79,382.00 L 511.00,382.00 L 512.21,382.00 L 513.42,382.00 L 514.62,382.00 L 515.83,382.00 L 517.04,382.00 L 518.25,382.00 L 519.46,382.00 L 520.67,382.00 L 521.88,382.00 L 523.08,382.00 L 524.29,382.00 L 525.50,382.00 L 526.71,382.00 L 527.92,382.00 L 529.12,382.00 L 530.33,382.00 L 531.54,382.00 L 532.75,382.00 L 533.96,382.00 L 535.17,382.00 L 536.38,382.00 L 537.58,382.00 L 538.79,382.00 L 540.00,382.00 L 540.00,382.00 Z" fill="#f59e0b" fill-opacity="0.85"/>
<path d="M 40.00,382.00 L 40.00,382.00 L 40.88,382.00 L 41.75,382.00 L 42.62,382.00 L 43.50,382.00 L 44.38,382.00 L 45.25,382.00 L 46.12,382.00 L 47.00,382.00 L 47.88,382.00 L 48.75,382.00 L 49.62,382.00 L 50.50,382.00 L 51.38,382.00 L 52.25,382.00 L 53.12,382.00 L 54.00,382.00 L 54.88,382.00 L 55.75,382.00 L 56.62,382.00 L 57.50,382.00 L 58.38,382.00 L 59.25,382.00 L 60.12,382.00 L 61.00,382.00 L 61.88,382.00 L 62.75,382.00 L 63.62,382.00 L 64.50,382.00 L 65.38,382.00 L 66.25,382.00 L 67.12,382.00 L 68.00,382.00 L 68.88,382.00 L 69.75,382.00 L 70.62,382.00 L 71.50,382.00 L 72.38,382.00 L 73.25,382.00 L 74.12,382.00 L 75.00,382.00 L 75.88,382.00 L 76.75,382.00 L 77.62,382.00 L 78.50,382.00 L 79.38,382.00 L 80.25,382.00 L 81.12,382.00 L 82.00,382.00 L 82.88,382.00 L 83.75,382.00 L 84.62,382.00 L 85.50,382.00 L 86.38,382.00 L 87.25,382.00 L 88.12,382.00 L 89.00,382.00 L 89.88,382.00 L 90.75,382.00 L 91.62,382.00 L 92.50,382.00 L 93.38,382.00 L 94.25,382.00 L 95.12,382.00 L 96.00,382.00 L 96.88,382.00 L 97.75,382.00 L 98.62,382.00 L 99.50,382.00 L 100.38,382.00 L 101.25,382.00 L 102.12,382.00 L 103.00,382.00 L 103.88,382.00 L 104.75,382.00 L 105.62,382.00 L 106.50,382.00 L 107.38,382.00 L 108.25,382.00 L 109.12,382.00 L 110.00,382.00 L 110.88,382.00 L 111.75,382.00 L 112.63,382.00 L 113.50,382.00 L 114.38,382.00 L 115.25,382.00 L 116.13,382.00 L 117.00,382.00 L 117.88,382.00 L 118.75,382.00 L 119.63,382.00 L 120.50,382.00 L 121.38,382.00 L 122.25,382.00 L 123.13,382.00 L 124.00,382.00 L 124.88,382.00 L 125.75,382.00 L 126.63,382.00 L 127.50,382.00 L 128.38,382.00 L 129.25,382.00 L 130.12,382.00 L 131.00,382.00 L 131.88,381.99 L 132.75,381.99 L 133.62,381.99 L 134.50,381.99 L 135.38,381.99 L 136.25,381.99 L 137.12,381.99 L 138.00,381.99 L 138.88,381.99 L 139.75,381.99 L 140.62,381.99 L 141.50,381.99 L 142.38,381.98 L 143.25,381.98 L 144.12,381.98 L 145.00,381.98 L 145.88,381.98 L 146.75,381.97 L 147.62,381.97 L 148.50,381.97 L 149.38,381.97 L 150.25,381.96 L 151.12,381.96 L 152.00,381.96 L 152.88,381.95 L 153.75,381.95 L 154.62,381.94 L 155.50,381.94 L 156.38,381.93 L 157.25,381.93 L 158.12,381.92 L 159.00,381.92 L 159.88,381.91 L 160.75,381.90 L 161.62,381.89 L 162.50,381.88 L 163.38,381.87 L 164.25,381.86 L 165.12,381.85 L 166.00,381.84 L 166.88,381.83 L 167.75,381.81 L 168.63,381.80 L 169.50,381.78 L 170.38,381.76 L 171.25,381.74 L 172.13,381.72 L 173.00,381.70 L 173.88,381.68 L 174.75,381.65 L 175.63,381.63 L 176.50,381.60 L 177.38,381.57 L 178.25,381.54 L 179.12,381.50 L 180.00,381.47 L 180.88,381.43 L 181.75,381.38 L 182.63,381.34 L 183.50,381.29 L 184.38,381.24 L 185.25,381.19 L 186.12,381.13 L 187.00,381.07 L 187.88,381.01 L 188.75,380.94 L 189.62,380.87 L 190.50,380.79 L 191.38,380.71 L 192.25,380.62 L 193.12,380.53 L 194.00,380.43 L 194.88,380.33 L 195.75,380.22 L 196.62,380.11 L 197.50,379.99 L 198.38,379.86 L 199.25,379.73 L 200.13,379.58 L 201.00,379.44 L 201.88,379.28 L 202.75,379.11 L 203.63,378.94 L 204.50,378.76 L 205.38,378.57 L 206.25,378.36 L 207.13,378.15 L 208.00,377.93 L 208.88,377.70 L 209.75,377.45 L 210.62,377.20 L 211.50,376.93 L 212.38,376.65 L 213.25,376.36 L 214.13,376.06 L 215.00,375.74 L 215.88,375.41 L 216.75,375.06 L 217.62,374.70 L 218.50,374.32 L 219.38,373.93 L 220.25,373.52 L 221.13,373.10 L 222.00,372.66 L 222.88,372.20 L 223.75,371.72 L 224.62,371.23 L 225.50,370.72 L 226.38,370.19 L 227.25,369.64 L 228.13,369.07 L 229.00,368.48 L 229.88,367.87 L 230.75,367.24 L 231.63,366.59 L 232.50,365.92 L 233.38,365.22 L 234.25,364.51 L 235.13,363.78 L 236.00,363.02 L 236.88,362.24 L 237.75,361.44 L 238.62,360.61 L 239.50,359.77 L 240.38,358.90 L 241.25,358.01 L 242.13,357.10 L 243.00,356.16 L 243.88,355.20 L 244.75,354.22 L 245.62,353.22 L 246.50,352.20 L 247.38,351.15 L 248.25,350.08 L 249.13,349.00 L 250.00,347.89 L 250.00,382.00 Z" fill="#dc2626" fill-opacity="0.85"/>
<path d="M 40.00,381.91 L 42.08,381.89 L 44.17,381.86 L 46.25,381.84 L 48.33,381.80 L 50.42,381.76 L 52.50,381.71 L 54.58,381.66 L 56.67,381.59 L 58.75,381.52 L 60.83,381.43 L 62.92,381.32 L 65.00,381.20 L 67.08,381.06 L 69.17,380.90 L 71.25,380.72 L 73.33,380.51 L 75.42,380.26 L 77.50,379.99 L 79.58,379.67 L 81.67,379.32 L 83.75,378.91 L 85.83,378.46 L 87.92,377.95 L 90.00,377.38 L 92.08,376.75 L 94.17,376.04 L 96.25,375.26 L 98.33,374.39 L 100.42,373.44 L 102.50,372.40 L 104.58,371.25 L 106.67,370.00 L 108.75,368.65 L 110.83,367.18 L 112.92,365.59 L 115.00,363.88 L 117.08,362.05 L 119.17,360.09 L 121.25,358.01 L 123.33,355.80 L 125.42,353.46 L 127.50,351.00 L 129.58,348.42 L 131.67,345.72 L 133.75,342.91 L 135.83,339.99 L 137.92,336.98 L 140.00,333.89 L 142.08,330.72 L 144.17,327.50 L 146.25,324.22 L 148.33,320.92 L 150.42,317.60 L 152.50,314.29 L 154.58,311.00 L 156.67,307.75 L 158.75,304.56 L 160.83,301.45 L 162.92,298.45 L 165.00,295.56 L 167.08,292.83 L 169.17,290.25 L 171.25,287.85 L 173.33,285.66 L 175.42,283.68 L 177.50,281.93 L 179.58,280.42 L 181.67,279.18 L 183.75,278.20 L 185.83,277.49 L 187.92,277.06 L 190.00,276.92 L 192.08,277.06 L 194.17,277.49 L 196.25,278.20 L 198.33,279.18 L 200.42,280.42 L 202.50,281.93 L 204.58,283.68 L 206.67,285.66 L 208.75,287.85 L 210.83,290.25 L 212.92,292.83 L 215.00,295.56 L 217.08,298.45 L 219.17,301.45 L 221.25,304.56 L 223.33,307.75 L 225.42,311.00 L 227.50,314.29 L 229.58,317.60 L 231.67,320.92 L 233.75,324.22 L 235.83,327.50 L 237.92,330.72 L 240.00,333.89 L 242.08,336.98 L 244.17,339.99 L 246.25,342.91 L 248.33,345.72 L 250.42,348.42 L 252.50,351.00 L 254.58,353.46 L 256.67,355.80 L 258.75,358.01 L 260.83,360.09 L 262.92,362.05 L 265.00,363.88 L 267.08,365.59 L 269.17,367.18 L 271.25,368.65 L 273.33,370.00 L 275.42,371.25 L 277.50,372.40 L 279.58,373.44 L 281.67,374.39 L 283.75,375.26 L 285.83,376.04 L 287.92,376.75 L 290.00,377.38 L 292.08,377.95 L 294.17,378.46 L 296.25,378.91 L 298.33,379.32 L 300.42,379.67 L 302.50,379.99 L 304.58,380.26 L 306.67,380.51 L 308.75,380.72 L 310.83,380.90 L 312.92,381.06 L 315.00,381.20 L 317.08,381.32 L 319.17,381.43 L 321.25,381.52 L 323.33,381.59 L 325.42,381.66 L 327.50,381.71 L 329.58,381.76 L 331.67,381.80 L 333.75,381.84 L 335.83,381.86 L 337.92,381.89 L 340.00,381.91 L 342.08,381.92 L 344.17,381.94 L 346.25,381.95 L 348.33,381.96 L 350.42,381.97 L 352.50,381.97 L 354.58,381.98 L 356.67,381.98 L 358.75,381.99 L 360.83,381.99 L 362.92,381.99 L 365.00,381.99 L 367.08,381.99 L 369.17,382.00 L 371.25,382.00 L 373.33,382.00 L 375.42,382.00 L 377.50,382.00 L 379.58,382.00 L 381.67,382.00 L 383.75,382.00 L 385.83,382.00 L 387.92,382.00 L 390.00,382.00 L 392.08,382.00 L 394.17,382.00 L 396.25,382.00 L 398.33,382.00 L 400.42,382.00 L 402.50,382.00 L 404.58,382.00 L 406.67,382.00 L 408.75,382.00 L 410.83,382.00 L 412.92,382.00 L 415.00,382.00 L 417.08,382.00 L 419.17,382.00 L 421.25,382.00 L 423.33,382.00 L 425.42,382.00 L 427.50,382.00 L 429.58,382.00 L 431.67,382.00 L 433.75,382.00 L 435.83,382.00 L 437.92,382.00 L 440.00,382.00 L 442.08,382.00 L 444.17,382.00 L 446.25,382.00 L 448.33,382.00 L 450.42,382.00 L 452.50,382.00 L 454.58,382.00 L 456.67,382.00 L 458.75,382.00 L 460.83,382.00 L 462.92,382.00 L 465.00,382.00 L 467.08,382.00 L 469.17,382.00 L 471.25,382.00 L 473.33,382.00 L 475.42,382.00 L 477.50,382.00 L 479.58,382.00 L 481.67,382.00 L 483.75,382.00 L 485.83,382.00 L 487.92,382.00 L 490.00,382.00 L 492.08,382.00 L 494.17,382.00 L 496.25,382.00 L 498.33,382.00 L 500.42,382.00 L 502.50,382.00 L 504.58,382.00 L 506.67,382.00 L 508.75,382.00 L 510.83,382.00 L 512.92,382.00 L 515.00,382.00 L 517.08,382.00 L 519.17,382.00 L 521.25,382.00 L 523.33,382.00 L 525.42,382.00 L 527.50,382.00 L 529.58,382.00 L 531.67,382.00 L 533.75,382.00 L 535.83,382.00 L 537.92,382.00 L 540.00,382.00" fill="none" stroke="#16a34a" stroke-width="2.4"/>
<path d="M 40.00,382.00 L 42.08,382.00 L 44.17,382.00 L 46.25,382.00 L 48.33,382.00 L 50.42,382.00 L 52.50,382.00 L 54.58,382.00 L 56.67,382.00 L 58.75,382.00 L 60.83,382.00 L 62.92,382.00 L 65.00,382.00 L 67.08,382.00 L 69.17,382.00 L 71.25,382.00 L 73.33,382.00 L 75.42,382.00 L 77.50,382.00 L 79.58,382.00 L 81.67,382.00 L 83.75,382.00 L 85.83,382.00 L 87.92,382.00 L 90.00,382.00 L 92.08,382.00 L 94.17,382.00 L 96.25,382.00 L 98.33,382.00 L 100.42,382.00 L 102.50,382.00 L 104.58,382.00 L 106.67,382.00 L 108.75,382.00 L 110.83,382.00 L 112.92,382.00 L 115.00,382.00 L 117.08,382.00 L 119.17,382.00 L 121.25,382.00 L 123.33,382.00 L 125.42,382.00 L 127.50,382.00 L 129.58,382.00 L 131.67,381.99 L 133.75,381.99 L 135.83,381.99 L 137.92,381.99 L 140.00,381.99 L 142.08,381.98 L 144.17,381.98 L 146.25,381.98 L 148.33,381.97 L 150.42,381.96 L 152.50,381.95 L 154.58,381.94 L 156.67,381.93 L 158.75,381.92 L 160.83,381.90 L 162.92,381.88 L 165.00,381.85 L 167.08,381.82 L 169.17,381.79 L 171.25,381.74 L 173.33,381.69 L 175.42,381.63 L 177.50,381.56 L 179.58,381.48 L 181.67,381.39 L 183.75,381.28 L 185.83,381.15 L 187.92,381.00 L 190.00,380.83 L 192.08,380.64 L 194.17,380.41 L 196.25,380.16 L 198.33,379.87 L 200.42,379.54 L 202.50,379.16 L 204.58,378.74 L 206.67,378.26 L 208.75,377.73 L 210.83,377.14 L 212.92,376.47 L 215.00,375.74 L 217.08,374.92 L 219.17,374.02 L 221.25,373.04 L 223.33,371.95 L 225.42,370.77 L 227.50,369.47 L 229.58,368.07 L 231.67,366.56 L 233.75,364.92 L 235.83,363.16 L 237.92,361.28 L 240.00,359.28 L 242.08,357.14 L 244.17,354.88 L 246.25,352.49 L 248.33,349.98 L 250.42,347.35 L 252.50,344.61 L 254.58,341.75 L 256.67,338.80 L 258.75,335.76 L 260.83,332.63 L 262.92,329.44 L 265.00,326.19 L 267.08,322.91 L 269.17,319.59 L 271.25,316.28 L 273.33,312.97 L 275.42,309.69 L 277.50,306.46 L 279.58,303.30 L 281.67,300.24 L 283.75,297.28 L 285.83,294.45 L 287.92,291.77 L 290.00,289.27 L 292.08,286.95 L 294.17,284.84 L 296.25,282.95 L 298.33,281.30 L 300.42,279.89 L 302.50,278.75 L 304.58,277.88 L 306.67,277.29 L 308.75,276.97 L 310.83,276.94 L 312.92,277.20 L 315.00,277.74 L 317.08,278.56 L 319.17,279.64 L 321.25,281.00 L 323.33,282.60 L 325.42,284.44 L 327.50,286.51 L 329.58,288.79 L 331.67,291.26 L 333.75,293.90 L 335.83,296.70 L 337.92,299.63 L 340.00,302.68 L 342.08,305.82 L 344.17,309.04 L 346.25,312.31 L 348.33,315.61 L 350.42,318.93 L 352.50,322.24 L 354.58,325.54 L 356.67,328.79 L 358.75,332.00 L 360.83,335.14 L 362.92,338.20 L 365.00,341.17 L 367.08,344.04 L 369.17,346.81 L 371.25,349.46 L 373.33,352.00 L 375.42,354.41 L 377.50,356.70 L 379.58,358.86 L 381.67,360.89 L 383.75,362.80 L 385.83,364.58 L 387.92,366.24 L 390.00,367.78 L 392.08,369.20 L 394.17,370.52 L 396.25,371.72 L 398.33,372.83 L 400.42,373.83 L 402.50,374.75 L 404.58,375.58 L 406.67,376.33 L 408.75,377.01 L 410.83,377.62 L 412.92,378.16 L 415.00,378.65 L 417.08,379.08 L 419.17,379.46 L 421.25,379.80 L 423.33,380.10 L 425.42,380.36 L 427.50,380.59 L 429.58,380.80 L 431.67,380.97 L 433.75,381.12 L 435.83,381.25 L 437.92,381.37 L 440.00,381.47 L 442.08,381.55 L 444.17,381.62 L 446.25,381.68 L 448.33,381.73 L 450.42,381.78 L 452.50,381.82 L 454.58,381.85 L 456.67,381.87 L 458.75,381.90 L 460.83,381.91 L 462.92,381.93 L 465.00,381.94 L 467.08,381.95 L 469.17,381.96 L 471.25,381.97 L 473.33,381.97 L 475.42,381.98 L 477.50,381.98 L 479.58,381.99 L 481.67,381.99 L 483.75,381.99 L 485.83,381.99 L 487.92,381.99 L 490.00,382.00 L 492.08,382.00 L 494.17,382.00 L 496.25,382.00 L 498.33,382.00 L 500.42,382.00 L 502.50,382.00 L 504.58,382.00 L 506.67,382.00 L 508.75,382.00 L 510.83,382.00 L 512.92,382.00 L 515.00,382.00 L 517.08,382.00 L 519.17,382.00 L 521.25,382.00 L 523.33,382.00 L 525.42,382.00 L 527.50,382.00 L 529.58,382.00 L 531.67,382.00 L 533.75,382.00 L 535.83,382.00 L 537.92,382.00 L 540.00,382.00" fill="none" stroke="#2563eb" stroke-width="2.4"/>
<line x1="40" y1="382" x2="540" y2="382" stroke="#222" stroke-width="1.3"/>
<line x1="250.0" y1="272" x2="250.0" y2="382" stroke="#111" stroke-width="1.5" stroke-dasharray="5,4"/>
<text x="46" y="278" text-anchor="start" font-family="Arial, Helvetica, sans-serif" font-size="15" fill="#111" font-weight="700">d&#x27; = 3</text>
<text x="46" y="296" text-anchor="start" font-family="Arial, Helvetica, sans-serif" font-size="12.5" fill="#b91c1c" font-weight="700">EER = 6.68%</text>
<line x1="193.0" y1="398" x2="307.0" y2="398" stroke="#555" stroke-width="1.4" stroke-linecap="round"/>
<line x1="307.0" y1="398" x2="301.93" y2="401.21" stroke="#555" stroke-width="1.4" stroke-linecap="round"/>
<line x1="307.0" y1="398" x2="301.93" y2="394.79" stroke="#555" stroke-width="1.4" stroke-linecap="round"/>
<line x1="307.0" y1="398" x2="193.0" y2="398" stroke="#555" stroke-width="1.4" stroke-linecap="round"/>
<line x1="193.0" y1="398" x2="198.07" y2="394.79" stroke="#555" stroke-width="1.4" stroke-linecap="round"/>
<line x1="193.0" y1="398" x2="198.07" y2="401.21" stroke="#555" stroke-width="1.4" stroke-linecap="round"/>
<text x="250.0" y="413" text-anchor="middle" font-family="Arial, Helvetica, sans-serif" font-size="11.5" fill="#333">Δμ = 3·σ = 0.24</text>
<path d="M 40.00,546.00 L 40.00,545.91 L 42.08,545.89 L 44.17,545.86 L 46.25,545.84 L 48.33,545.80 L 50.42,545.76 L 52.50,545.71 L 54.58,545.66 L 56.67,545.59 L 58.75,545.52 L 60.83,545.43 L 62.92,545.32 L 65.00,545.20 L 67.08,545.06 L 69.17,544.90 L 71.25,544.72 L 73.33,544.51 L 75.42,544.26 L 77.50,543.99 L 79.58,543.67 L 81.67,543.32 L 83.75,542.91 L 85.83,542.46 L 87.92,541.95 L 90.00,541.38 L 92.08,540.75 L 94.17,540.04 L 96.25,539.26 L 98.33,538.39 L 100.42,537.44 L 102.50,536.40 L 104.58,535.25 L 106.67,534.00 L 108.75,532.65 L 110.83,531.18 L 112.92,529.59 L 115.00,527.88 L 117.08,526.05 L 119.17,524.09 L 121.25,522.01 L 123.33,519.80 L 125.42,517.46 L 127.50,515.00 L 129.58,512.42 L 131.67,509.72 L 133.75,506.91 L 135.83,503.99 L 137.92,500.98 L 140.00,497.89 L 142.08,494.72 L 144.17,491.50 L 146.25,488.22 L 148.33,484.92 L 150.42,481.60 L 152.50,478.29 L 154.58,475.00 L 156.67,471.75 L 158.75,468.56 L 160.83,465.45 L 162.92,462.45 L 165.00,459.56 L 167.08,456.83 L 169.17,454.25 L 171.25,451.85 L 173.33,449.66 L 175.42,447.68 L 177.50,445.93 L 179.58,444.42 L 181.67,443.18 L 183.75,442.20 L 185.83,441.49 L 187.92,441.06 L 190.00,440.92 L 192.08,441.06 L 194.17,441.49 L 196.25,442.20 L 198.33,443.18 L 200.42,444.42 L 202.50,445.93 L 204.58,447.68 L 206.67,449.66 L 208.75,451.85 L 210.83,454.25 L 212.92,456.83 L 215.00,459.56 L 217.08,462.45 L 219.17,465.45 L 221.25,468.56 L 223.33,471.75 L 225.42,475.00 L 227.50,478.29 L 229.58,481.60 L 231.67,484.92 L 233.75,488.22 L 235.83,491.50 L 237.92,494.72 L 240.00,497.89 L 242.08,500.98 L 244.17,503.99 L 246.25,506.91 L 248.33,509.72 L 250.42,512.42 L 252.50,515.00 L 254.58,517.46 L 256.67,519.80 L 258.75,522.01 L 260.83,524.09 L 262.92,526.05 L 265.00,527.88 L 267.08,529.59 L 269.17,531.18 L 271.25,532.65 L 273.33,534.00 L 275.42,535.25 L 277.50,536.40 L 279.58,537.44 L 281.67,538.39 L 283.75,539.26 L 285.83,540.04 L 287.92,540.75 L 290.00,541.38 L 292.08,541.95 L 294.17,542.46 L 296.25,542.91 L 298.33,543.32 L 300.42,543.67 L 302.50,543.99 L 304.58,544.26 L 306.67,544.51 L 308.75,544.72 L 310.83,544.90 L 312.92,545.06 L 315.00,545.20 L 317.08,545.32 L 319.17,545.43 L 321.25,545.52 L 323.33,545.59 L 325.42,545.66 L 327.50,545.71 L 329.58,545.76 L 331.67,545.80 L 333.75,545.84 L 335.83,545.86 L 337.92,545.89 L 340.00,545.91 L 342.08,545.92 L 344.17,545.94 L 346.25,545.95 L 348.33,545.96 L 350.42,545.97 L 352.50,545.97 L 354.58,545.98 L 356.67,545.98 L 358.75,545.99 L 360.83,545.99 L 362.92,545.99 L 365.00,545.99 L 367.08,545.99 L 369.17,546.00 L 371.25,546.00 L 373.33,546.00 L 375.42,546.00 L 377.50,546.00 L 379.58,546.00 L 381.67,546.00 L 383.75,546.00 L 385.83,546.00 L 387.92,546.00 L 390.00,546.00 L 392.08,546.00 L 394.17,546.00 L 396.25,546.00 L 398.33,546.00 L 400.42,546.00 L 402.50,546.00 L 404.58,546.00 L 406.67,546.00 L 408.75,546.00 L 410.83,546.00 L 412.92,546.00 L 415.00,546.00 L 417.08,546.00 L 419.17,546.00 L 421.25,546.00 L 423.33,546.00 L 425.42,546.00 L 427.50,546.00 L 429.58,546.00 L 431.67,546.00 L 433.75,546.00 L 435.83,546.00 L 437.92,546.00 L 440.00,546.00 L 442.08,546.00 L 444.17,546.00 L 446.25,546.00 L 448.33,546.00 L 450.42,546.00 L 452.50,546.00 L 454.58,546.00 L 456.67,546.00 L 458.75,546.00 L 460.83,546.00 L 462.92,546.00 L 465.00,546.00 L 467.08,546.00 L 469.17,546.00 L 471.25,546.00 L 473.33,546.00 L 475.42,546.00 L 477.50,546.00 L 479.58,546.00 L 481.67,546.00 L 483.75,546.00 L 485.83,546.00 L 487.92,546.00 L 490.00,546.00 L 492.08,546.00 L 494.17,546.00 L 496.25,546.00 L 498.33,546.00 L 500.42,546.00 L 502.50,546.00 L 504.58,546.00 L 506.67,546.00 L 508.75,546.00 L 510.83,546.00 L 512.92,546.00 L 515.00,546.00 L 517.08,546.00 L 519.17,546.00 L 521.25,546.00 L 523.33,546.00 L 525.42,546.00 L 527.50,546.00 L 529.58,546.00 L 531.67,546.00 L 533.75,546.00 L 535.83,546.00 L 537.92,546.00 L 540.00,546.00 L 540.00,546.00 Z" fill="#16a34a" fill-opacity="0.15"/>
<path d="M 40.00,546.00 L 40.00,546.00 L 42.08,546.00 L 44.17,546.00 L 46.25,546.00 L 48.33,546.00 L 50.42,546.00 L 52.50,546.00 L 54.58,546.00 L 56.67,546.00 L 58.75,546.00 L 60.83,546.00 L 62.92,546.00 L 65.00,546.00 L 67.08,546.00 L 69.17,546.00 L 71.25,546.00 L 73.33,546.00 L 75.42,546.00 L 77.50,546.00 L 79.58,546.00 L 81.67,546.00 L 83.75,546.00 L 85.83,546.00 L 87.92,546.00 L 90.00,546.00 L 92.08,546.00 L 94.17,546.00 L 96.25,546.00 L 98.33,546.00 L 100.42,546.00 L 102.50,546.00 L 104.58,546.00 L 106.67,546.00 L 108.75,546.00 L 110.83,546.00 L 112.92,546.00 L 115.00,546.00 L 117.08,546.00 L 119.17,546.00 L 121.25,546.00 L 123.33,546.00 L 125.42,546.00 L 127.50,546.00 L 129.58,546.00 L 131.67,546.00 L 133.75,546.00 L 135.83,546.00 L 137.92,546.00 L 140.00,546.00 L 142.08,546.00 L 144.17,546.00 L 146.25,546.00 L 148.33,546.00 L 150.42,546.00 L 152.50,546.00 L 154.58,546.00 L 156.67,546.00 L 158.75,546.00 L 160.83,546.00 L 162.92,546.00 L 165.00,546.00 L 167.08,546.00 L 169.17,546.00 L 171.25,546.00 L 173.33,546.00 L 175.42,546.00 L 177.50,546.00 L 179.58,546.00 L 181.67,546.00 L 183.75,546.00 L 185.83,546.00 L 187.92,546.00 L 190.00,546.00 L 192.08,546.00 L 194.17,546.00 L 196.25,546.00 L 198.33,546.00 L 200.42,546.00 L 202.50,546.00 L 204.58,546.00 L 206.67,546.00 L 208.75,546.00 L 210.83,546.00 L 212.92,545.99 L 215.00,545.99 L 217.08,545.99 L 219.17,545.99 L 221.25,545.99 L 223.33,545.98 L 225.42,545.98 L 227.50,545.97 L 229.58,545.97 L 231.67,545.96 L 233.75,545.95 L 235.83,545.94 L 237.92,545.92 L 240.00,545.91 L 242.08,545.89 L 244.17,545.86 L 246.25,545.84 L 248.33,545.80 L 250.42,545.76 L 252.50,545.71 L 254.58,545.66 L 256.67,545.59 L 258.75,545.52 L 260.83,545.43 L 262.92,545.32 L 265.00,545.20 L 267.08,545.06 L 269.17,544.90 L 271.25,544.72 L 273.33,544.51 L 275.42,544.26 L 277.50,543.99 L 279.58,543.67 L 281.67,543.32 L 283.75,542.91 L 285.83,542.46 L 287.92,541.95 L 290.00,541.38 L 292.08,540.75 L 294.17,540.04 L 296.25,539.26 L 298.33,538.39 L 300.42,537.44 L 302.50,536.40 L 304.58,535.25 L 306.67,534.00 L 308.75,532.65 L 310.83,531.18 L 312.92,529.59 L 315.00,527.88 L 317.08,526.05 L 319.17,524.09 L 321.25,522.01 L 323.33,519.80 L 325.42,517.46 L 327.50,515.00 L 329.58,512.42 L 331.67,509.72 L 333.75,506.91 L 335.83,503.99 L 337.92,500.98 L 340.00,497.89 L 342.08,494.72 L 344.17,491.50 L 346.25,488.22 L 348.33,484.92 L 350.42,481.60 L 352.50,478.29 L 354.58,475.00 L 356.67,471.75 L 358.75,468.56 L 360.83,465.45 L 362.92,462.45 L 365.00,459.56 L 367.08,456.83 L 369.17,454.25 L 371.25,451.85 L 373.33,449.66 L 375.42,447.68 L 377.50,445.93 L 379.58,444.42 L 381.67,443.18 L 383.75,442.20 L 385.83,441.49 L 387.92,441.06 L 390.00,440.92 L 392.08,441.06 L 394.17,441.49 L 396.25,442.20 L 398.33,443.18 L 400.42,444.42 L 402.50,445.93 L 404.58,447.68 L 406.67,449.66 L 408.75,451.85 L 410.83,454.25 L 412.92,456.83 L 415.00,459.56 L 417.08,462.45 L 419.17,465.45 L 421.25,468.56 L 423.33,471.75 L 425.42,475.00 L 427.50,478.29 L 429.58,481.60 L 431.67,484.92 L 433.75,488.22 L 435.83,491.50 L 437.92,494.72 L 440.00,497.89 L 442.08,500.98 L 444.17,503.99 L 446.25,506.91 L 448.33,509.72 L 450.42,512.42 L 452.50,515.00 L 454.58,517.46 L 456.67,519.80 L 458.75,522.01 L 460.83,524.09 L 462.92,526.05 L 465.00,527.88 L 467.08,529.59 L 469.17,531.18 L 471.25,532.65 L 473.33,534.00 L 475.42,535.25 L 477.50,536.40 L 479.58,537.44 L 481.67,538.39 L 483.75,539.26 L 485.83,540.04 L 487.92,540.75 L 490.00,541.38 L 492.08,541.95 L 494.17,542.46 L 496.25,542.91 L 498.33,543.32 L 500.42,543.67 L 502.50,543.99 L 504.58,544.26 L 506.67,544.51 L 508.75,544.72 L 510.83,544.90 L 512.92,545.06 L 515.00,545.20 L 517.08,545.32 L 519.17,545.43 L 521.25,545.52 L 523.33,545.59 L 525.42,545.66 L 527.50,545.71 L 529.58,545.76 L 531.67,545.80 L 533.75,545.84 L 535.83,545.86 L 537.92,545.89 L 540.00,545.91 L 540.00,546.00 Z" fill="#2563eb" fill-opacity="0.15"/>
<path d="M 290.00,546.00 L 290.00,541.38 L 291.04,541.68 L 292.08,541.95 L 293.12,542.21 L 294.17,542.46 L 295.21,542.69 L 296.25,542.91 L 297.29,543.12 L 298.33,543.32 L 299.38,543.50 L 300.42,543.67 L 301.46,543.83 L 302.50,543.99 L 303.54,544.13 L 304.58,544.26 L 305.62,544.39 L 306.67,544.51 L 307.71,544.62 L 308.75,544.72 L 309.79,544.81 L 310.83,544.90 L 311.88,544.99 L 312.92,545.06 L 313.96,545.14 L 315.00,545.20 L 316.04,545.27 L 317.08,545.32 L 318.12,545.38 L 319.17,545.43 L 320.21,545.47 L 321.25,545.52 L 322.29,545.56 L 323.33,545.59 L 324.38,545.63 L 325.42,545.66 L 326.46,545.69 L 327.50,545.71 L 328.54,545.74 L 329.58,545.76 L 330.62,545.78 L 331.67,545.80 L 332.71,545.82 L 333.75,545.84 L 334.79,545.85 L 335.83,545.86 L 336.88,545.88 L 337.92,545.89 L 338.96,545.90 L 340.00,545.91 L 341.04,545.92 L 342.08,545.92 L 343.12,545.93 L 344.17,545.94 L 345.21,545.94 L 346.25,545.95 L 347.29,545.95 L 348.33,545.96 L 349.38,545.96 L 350.42,545.97 L 351.46,545.97 L 352.50,545.97 L 353.54,545.98 L 354.58,545.98 L 355.62,545.98 L 356.67,545.98 L 357.71,545.98 L 358.75,545.99 L 359.79,545.99 L 360.83,545.99 L 361.88,545.99 L 362.92,545.99 L 363.96,545.99 L 365.00,545.99 L 366.04,545.99 L 367.08,545.99 L 368.12,545.99 L 369.17,546.00 L 370.21,546.00 L 371.25,546.00 L 372.29,546.00 L 373.33,546.00 L 374.38,546.00 L 375.42,546.00 L 376.46,546.00 L 377.50,546.00 L 378.54,546.00 L 379.58,546.00 L 380.62,546.00 L 381.67,546.00 L 382.71,546.00 L 383.75,546.00 L 384.79,546.00 L 385.83,546.00 L 386.88,546.00 L 387.92,546.00 L 388.96,546.00 L 390.00,546.00 L 391.04,546.00 L 392.08,546.00 L 393.12,546.00 L 394.17,546.00 L 395.21,546.00 L 396.25,546.00 L 397.29,546.00 L 398.33,546.00 L 399.38,546.00 L 400.42,546.00 L 401.46,546.00 L 402.50,546.00 L 403.54,546.00 L 404.58,546.00 L 405.62,546.00 L 406.67,546.00 L 407.71,546.00 L 408.75,546.00 L 409.79,546.00 L 410.83,546.00 L 411.88,546.00 L 412.92,546.00 L 413.96,546.00 L 415.00,546.00 L 416.04,546.00 L 417.08,546.00 L 418.12,546.00 L 419.17,546.00 L 420.21,546.00 L 421.25,546.00 L 422.29,546.00 L 423.33,546.00 L 424.38,546.00 L 425.42,546.00 L 426.46,546.00 L 427.50,546.00 L 428.54,546.00 L 429.58,546.00 L 430.62,546.00 L 431.67,546.00 L 432.71,546.00 L 433.75,546.00 L 434.79,546.00 L 435.83,546.00 L 436.88,546.00 L 437.92,546.00 L 438.96,546.00 L 440.00,546.00 L 441.04,546.00 L 442.08,546.00 L 443.12,546.00 L 444.17,546.00 L 445.21,546.00 L 446.25,546.00 L 447.29,546.00 L 448.33,546.00 L 449.38,546.00 L 450.42,546.00 L 451.46,546.00 L 452.50,546.00 L 453.54,546.00 L 454.58,546.00 L 455.62,546.00 L 456.67,546.00 L 457.71,546.00 L 458.75,546.00 L 459.79,546.00 L 460.83,546.00 L 461.88,546.00 L 462.92,546.00 L 463.96,546.00 L 465.00,546.00 L 466.04,546.00 L 467.08,546.00 L 468.12,546.00 L 469.17,546.00 L 470.21,546.00 L 471.25,546.00 L 472.29,546.00 L 473.33,546.00 L 474.38,546.00 L 475.42,546.00 L 476.46,546.00 L 477.50,546.00 L 478.54,546.00 L 479.58,546.00 L 480.62,546.00 L 481.67,546.00 L 482.71,546.00 L 483.75,546.00 L 484.79,546.00 L 485.83,546.00 L 486.88,546.00 L 487.92,546.00 L 488.96,546.00 L 490.00,546.00 L 491.04,546.00 L 492.08,546.00 L 493.12,546.00 L 494.17,546.00 L 495.21,546.00 L 496.25,546.00 L 497.29,546.00 L 498.33,546.00 L 499.38,546.00 L 500.42,546.00 L 501.46,546.00 L 502.50,546.00 L 503.54,546.00 L 504.58,546.00 L 505.62,546.00 L 506.67,546.00 L 507.71,546.00 L 508.75,546.00 L 509.79,546.00 L 510.83,546.00 L 511.88,546.00 L 512.92,546.00 L 513.96,546.00 L 515.00,546.00 L 516.04,546.00 L 517.08,546.00 L 518.12,546.00 L 519.17,546.00 L 520.21,546.00 L 521.25,546.00 L 522.29,546.00 L 523.33,546.00 L 524.38,546.00 L 525.42,546.00 L 526.46,546.00 L 527.50,546.00 L 528.54,546.00 L 529.58,546.00 L 530.62,546.00 L 531.67,546.00 L 532.71,546.00 L 533.75,546.00 L 534.79,546.00 L 535.83,546.00 L 536.88,546.00 L 537.92,546.00 L 538.96,546.00 L 540.00,546.00 L 540.00,546.00 Z" fill="#f59e0b" fill-opacity="0.85"/>
<path d="M 40.00,546.00 L 40.00,546.00 L 41.04,546.00 L 42.08,546.00 L 43.12,546.00 L 44.17,546.00 L 45.21,546.00 L 46.25,546.00 L 47.29,546.00 L 48.33,546.00 L 49.38,546.00 L 50.42,546.00 L 51.46,546.00 L 52.50,546.00 L 53.54,546.00 L 54.58,546.00 L 55.62,546.00 L 56.67,546.00 L 57.71,546.00 L 58.75,546.00 L 59.79,546.00 L 60.83,546.00 L 61.88,546.00 L 62.92,546.00 L 63.96,546.00 L 65.00,546.00 L 66.04,546.00 L 67.08,546.00 L 68.12,546.00 L 69.17,546.00 L 70.21,546.00 L 71.25,546.00 L 72.29,546.00 L 73.33,546.00 L 74.38,546.00 L 75.42,546.00 L 76.46,546.00 L 77.50,546.00 L 78.54,546.00 L 79.58,546.00 L 80.62,546.00 L 81.67,546.00 L 82.71,546.00 L 83.75,546.00 L 84.79,546.00 L 85.83,546.00 L 86.88,546.00 L 87.92,546.00 L 88.96,546.00 L 90.00,546.00 L 91.04,546.00 L 92.08,546.00 L 93.12,546.00 L 94.17,546.00 L 95.21,546.00 L 96.25,546.00 L 97.29,546.00 L 98.33,546.00 L 99.38,546.00 L 100.42,546.00 L 101.46,546.00 L 102.50,546.00 L 103.54,546.00 L 104.58,546.00 L 105.62,546.00 L 106.67,546.00 L 107.71,546.00 L 108.75,546.00 L 109.79,546.00 L 110.83,546.00 L 111.88,546.00 L 112.92,546.00 L 113.96,546.00 L 115.00,546.00 L 116.04,546.00 L 117.08,546.00 L 118.12,546.00 L 119.17,546.00 L 120.21,546.00 L 121.25,546.00 L 122.29,546.00 L 123.33,546.00 L 124.38,546.00 L 125.42,546.00 L 126.46,546.00 L 127.50,546.00 L 128.54,546.00 L 129.58,546.00 L 130.62,546.00 L 131.67,546.00 L 132.71,546.00 L 133.75,546.00 L 134.79,546.00 L 135.83,546.00 L 136.88,546.00 L 137.92,546.00 L 138.96,546.00 L 140.00,546.00 L 141.04,546.00 L 142.08,546.00 L 143.12,546.00 L 144.17,546.00 L 145.21,546.00 L 146.25,546.00 L 147.29,546.00 L 148.33,546.00 L 149.38,546.00 L 150.42,546.00 L 151.46,546.00 L 152.50,546.00 L 153.54,546.00 L 154.58,546.00 L 155.62,546.00 L 156.67,546.00 L 157.71,546.00 L 158.75,546.00 L 159.79,546.00 L 160.83,546.00 L 161.88,546.00 L 162.92,546.00 L 163.96,546.00 L 165.00,546.00 L 166.04,546.00 L 167.08,546.00 L 168.12,546.00 L 169.17,546.00 L 170.21,546.00 L 171.25,546.00 L 172.29,546.00 L 173.33,546.00 L 174.38,546.00 L 175.42,546.00 L 176.46,546.00 L 177.50,546.00 L 178.54,546.00 L 179.58,546.00 L 180.62,546.00 L 181.67,546.00 L 182.71,546.00 L 183.75,546.00 L 184.79,546.00 L 185.83,546.00 L 186.88,546.00 L 187.92,546.00 L 188.96,546.00 L 190.00,546.00 L 191.04,546.00 L 192.08,546.00 L 193.12,546.00 L 194.17,546.00 L 195.21,546.00 L 196.25,546.00 L 197.29,546.00 L 198.33,546.00 L 199.38,546.00 L 200.42,546.00 L 201.46,546.00 L 202.50,546.00 L 203.54,546.00 L 204.58,546.00 L 205.62,546.00 L 206.67,546.00 L 207.71,546.00 L 208.75,546.00 L 209.79,546.00 L 210.83,546.00 L 211.88,545.99 L 212.92,545.99 L 213.96,545.99 L 215.00,545.99 L 216.04,545.99 L 217.08,545.99 L 218.12,545.99 L 219.17,545.99 L 220.21,545.99 L 221.25,545.99 L 222.29,545.98 L 223.33,545.98 L 224.38,545.98 L 225.42,545.98 L 226.46,545.98 L 227.50,545.97 L 228.54,545.97 L 229.58,545.97 L 230.62,545.96 L 231.67,545.96 L 232.71,545.95 L 233.75,545.95 L 234.79,545.94 L 235.83,545.94 L 236.88,545.93 L 237.92,545.92 L 238.96,545.92 L 240.00,545.91 L 241.04,545.90 L 242.08,545.89 L 243.12,545.88 L 244.17,545.86 L 245.21,545.85 L 246.25,545.84 L 247.29,545.82 L 248.33,545.80 L 249.38,545.78 L 250.42,545.76 L 251.46,545.74 L 252.50,545.71 L 253.54,545.69 L 254.58,545.66 L 255.62,545.63 L 256.67,545.59 L 257.71,545.56 L 258.75,545.52 L 259.79,545.47 L 260.83,545.43 L 261.88,545.38 L 262.92,545.32 L 263.96,545.27 L 265.00,545.20 L 266.04,545.14 L 267.08,545.06 L 268.12,544.99 L 269.17,544.90 L 270.21,544.81 L 271.25,544.72 L 272.29,544.62 L 273.33,544.51 L 274.38,544.39 L 275.42,544.26 L 276.46,544.13 L 277.50,543.99 L 278.54,543.83 L 279.58,543.67 L 280.62,543.50 L 281.67,543.32 L 282.71,543.12 L 283.75,542.91 L 284.79,542.69 L 285.83,542.46 L 286.88,542.21 L 287.92,541.95 L 288.96,541.68 L 290.00,541.38 L 290.00,546.00 Z" fill="#dc2626" fill-opacity="0.85"/>
<path d="M 40.00,545.91 L 42.08,545.89 L 44.17,545.86 L 46.25,545.84 L 48.33,545.80 L 50.42,545.76 L 52.50,545.71 L 54.58,545.66 L 56.67,545.59 L 58.75,545.52 L 60.83,545.43 L 62.92,545.32 L 65.00,545.20 L 67.08,545.06 L 69.17,544.90 L 71.25,544.72 L 73.33,544.51 L 75.42,544.26 L 77.50,543.99 L 79.58,543.67 L 81.67,543.32 L 83.75,542.91 L 85.83,542.46 L 87.92,541.95 L 90.00,541.38 L 92.08,540.75 L 94.17,540.04 L 96.25,539.26 L 98.33,538.39 L 100.42,537.44 L 102.50,536.40 L 104.58,535.25 L 106.67,534.00 L 108.75,532.65 L 110.83,531.18 L 112.92,529.59 L 115.00,527.88 L 117.08,526.05 L 119.17,524.09 L 121.25,522.01 L 123.33,519.80 L 125.42,517.46 L 127.50,515.00 L 129.58,512.42 L 131.67,509.72 L 133.75,506.91 L 135.83,503.99 L 137.92,500.98 L 140.00,497.89 L 142.08,494.72 L 144.17,491.50 L 146.25,488.22 L 148.33,484.92 L 150.42,481.60 L 152.50,478.29 L 154.58,475.00 L 156.67,471.75 L 158.75,468.56 L 160.83,465.45 L 162.92,462.45 L 165.00,459.56 L 167.08,456.83 L 169.17,454.25 L 171.25,451.85 L 173.33,449.66 L 175.42,447.68 L 177.50,445.93 L 179.58,444.42 L 181.67,443.18 L 183.75,442.20 L 185.83,441.49 L 187.92,441.06 L 190.00,440.92 L 192.08,441.06 L 194.17,441.49 L 196.25,442.20 L 198.33,443.18 L 200.42,444.42 L 202.50,445.93 L 204.58,447.68 L 206.67,449.66 L 208.75,451.85 L 210.83,454.25 L 212.92,456.83 L 215.00,459.56 L 217.08,462.45 L 219.17,465.45 L 221.25,468.56 L 223.33,471.75 L 225.42,475.00 L 227.50,478.29 L 229.58,481.60 L 231.67,484.92 L 233.75,488.22 L 235.83,491.50 L 237.92,494.72 L 240.00,497.89 L 242.08,500.98 L 244.17,503.99 L 246.25,506.91 L 248.33,509.72 L 250.42,512.42 L 252.50,515.00 L 254.58,517.46 L 256.67,519.80 L 258.75,522.01 L 260.83,524.09 L 262.92,526.05 L 265.00,527.88 L 267.08,529.59 L 269.17,531.18 L 271.25,532.65 L 273.33,534.00 L 275.42,535.25 L 277.50,536.40 L 279.58,537.44 L 281.67,538.39 L 283.75,539.26 L 285.83,540.04 L 287.92,540.75 L 290.00,541.38 L 292.08,541.95 L 294.17,542.46 L 296.25,542.91 L 298.33,543.32 L 300.42,543.67 L 302.50,543.99 L 304.58,544.26 L 306.67,544.51 L 308.75,544.72 L 310.83,544.90 L 312.92,545.06 L 315.00,545.20 L 317.08,545.32 L 319.17,545.43 L 321.25,545.52 L 323.33,545.59 L 325.42,545.66 L 327.50,545.71 L 329.58,545.76 L 331.67,545.80 L 333.75,545.84 L 335.83,545.86 L 337.92,545.89 L 340.00,545.91 L 342.08,545.92 L 344.17,545.94 L 346.25,545.95 L 348.33,545.96 L 350.42,545.97 L 352.50,545.97 L 354.58,545.98 L 356.67,545.98 L 358.75,545.99 L 360.83,545.99 L 362.92,545.99 L 365.00,545.99 L 367.08,545.99 L 369.17,546.00 L 371.25,546.00 L 373.33,546.00 L 375.42,546.00 L 377.50,546.00 L 379.58,546.00 L 381.67,546.00 L 383.75,546.00 L 385.83,546.00 L 387.92,546.00 L 390.00,546.00 L 392.08,546.00 L 394.17,546.00 L 396.25,546.00 L 398.33,546.00 L 400.42,546.00 L 402.50,546.00 L 404.58,546.00 L 406.67,546.00 L 408.75,546.00 L 410.83,546.00 L 412.92,546.00 L 415.00,546.00 L 417.08,546.00 L 419.17,546.00 L 421.25,546.00 L 423.33,546.00 L 425.42,546.00 L 427.50,546.00 L 429.58,546.00 L 431.67,546.00 L 433.75,546.00 L 435.83,546.00 L 437.92,546.00 L 440.00,546.00 L 442.08,546.00 L 444.17,546.00 L 446.25,546.00 L 448.33,546.00 L 450.42,546.00 L 452.50,546.00 L 454.58,546.00 L 456.67,546.00 L 458.75,546.00 L 460.83,546.00 L 462.92,546.00 L 465.00,546.00 L 467.08,546.00 L 469.17,546.00 L 471.25,546.00 L 473.33,546.00 L 475.42,546.00 L 477.50,546.00 L 479.58,546.00 L 481.67,546.00 L 483.75,546.00 L 485.83,546.00 L 487.92,546.00 L 490.00,546.00 L 492.08,546.00 L 494.17,546.00 L 496.25,546.00 L 498.33,546.00 L 500.42,546.00 L 502.50,546.00 L 504.58,546.00 L 506.67,546.00 L 508.75,546.00 L 510.83,546.00 L 512.92,546.00 L 515.00,546.00 L 517.08,546.00 L 519.17,546.00 L 521.25,546.00 L 523.33,546.00 L 525.42,546.00 L 527.50,546.00 L 529.58,546.00 L 531.67,546.00 L 533.75,546.00 L 535.83,546.00 L 537.92,546.00 L 540.00,546.00" fill="none" stroke="#16a34a" stroke-width="2.4"/>
<path d="M 40.00,546.00 L 42.08,546.00 L 44.17,546.00 L 46.25,546.00 L 48.33,546.00 L 50.42,546.00 L 52.50,546.00 L 54.58,546.00 L 56.67,546.00 L 58.75,546.00 L 60.83,546.00 L 62.92,546.00 L 65.00,546.00 L 67.08,546.00 L 69.17,546.00 L 71.25,546.00 L 73.33,546.00 L 75.42,546.00 L 77.50,546.00 L 79.58,546.00 L 81.67,546.00 L 83.75,546.00 L 85.83,546.00 L 87.92,546.00 L 90.00,546.00 L 92.08,546.00 L 94.17,546.00 L 96.25,546.00 L 98.33,546.00 L 100.42,546.00 L 102.50,546.00 L 104.58,546.00 L 106.67,546.00 L 108.75,546.00 L 110.83,546.00 L 112.92,546.00 L 115.00,546.00 L 117.08,546.00 L 119.17,546.00 L 121.25,546.00 L 123.33,546.00 L 125.42,546.00 L 127.50,546.00 L 129.58,546.00 L 131.67,546.00 L 133.75,546.00 L 135.83,546.00 L 137.92,546.00 L 140.00,546.00 L 142.08,546.00 L 144.17,546.00 L 146.25,546.00 L 148.33,546.00 L 150.42,546.00 L 152.50,546.00 L 154.58,546.00 L 156.67,546.00 L 158.75,546.00 L 160.83,546.00 L 162.92,546.00 L 165.00,546.00 L 167.08,546.00 L 169.17,546.00 L 171.25,546.00 L 173.33,546.00 L 175.42,546.00 L 177.50,546.00 L 179.58,546.00 L 181.67,546.00 L 183.75,546.00 L 185.83,546.00 L 187.92,546.00 L 190.00,546.00 L 192.08,546.00 L 194.17,546.00 L 196.25,546.00 L 198.33,546.00 L 200.42,546.00 L 202.50,546.00 L 204.58,546.00 L 206.67,546.00 L 208.75,546.00 L 210.83,546.00 L 212.92,545.99 L 215.00,545.99 L 217.08,545.99 L 219.17,545.99 L 221.25,545.99 L 223.33,545.98 L 225.42,545.98 L 227.50,545.97 L 229.58,545.97 L 231.67,545.96 L 233.75,545.95 L 235.83,545.94 L 237.92,545.92 L 240.00,545.91 L 242.08,545.89 L 244.17,545.86 L 246.25,545.84 L 248.33,545.80 L 250.42,545.76 L 252.50,545.71 L 254.58,545.66 L 256.67,545.59 L 258.75,545.52 L 260.83,545.43 L 262.92,545.32 L 265.00,545.20 L 267.08,545.06 L 269.17,544.90 L 271.25,544.72 L 273.33,544.51 L 275.42,544.26 L 277.50,543.99 L 279.58,543.67 L 281.67,543.32 L 283.75,542.91 L 285.83,542.46 L 287.92,541.95 L 290.00,541.38 L 292.08,540.75 L 294.17,540.04 L 296.25,539.26 L 298.33,538.39 L 300.42,537.44 L 302.50,536.40 L 304.58,535.25 L 306.67,534.00 L 308.75,532.65 L 310.83,531.18 L 312.92,529.59 L 315.00,527.88 L 317.08,526.05 L 319.17,524.09 L 321.25,522.01 L 323.33,519.80 L 325.42,517.46 L 327.50,515.00 L 329.58,512.42 L 331.67,509.72 L 333.75,506.91 L 335.83,503.99 L 337.92,500.98 L 340.00,497.89 L 342.08,494.72 L 344.17,491.50 L 346.25,488.22 L 348.33,484.92 L 350.42,481.60 L 352.50,478.29 L 354.58,475.00 L 356.67,471.75 L 358.75,468.56 L 360.83,465.45 L 362.92,462.45 L 365.00,459.56 L 367.08,456.83 L 369.17,454.25 L 371.25,451.85 L 373.33,449.66 L 375.42,447.68 L 377.50,445.93 L 379.58,444.42 L 381.67,443.18 L 383.75,442.20 L 385.83,441.49 L 387.92,441.06 L 390.00,440.92 L 392.08,441.06 L 394.17,441.49 L 396.25,442.20 L 398.33,443.18 L 400.42,444.42 L 402.50,445.93 L 404.58,447.68 L 406.67,449.66 L 408.75,451.85 L 410.83,454.25 L 412.92,456.83 L 415.00,459.56 L 417.08,462.45 L 419.17,465.45 L 421.25,468.56 L 423.33,471.75 L 425.42,475.00 L 427.50,478.29 L 429.58,481.60 L 431.67,484.92 L 433.75,488.22 L 435.83,491.50 L 437.92,494.72 L 440.00,497.89 L 442.08,500.98 L 444.17,503.99 L 446.25,506.91 L 448.33,509.72 L 450.42,512.42 L 452.50,515.00 L 454.58,517.46 L 456.67,519.80 L 458.75,522.01 L 460.83,524.09 L 462.92,526.05 L 465.00,527.88 L 467.08,529.59 L 469.17,531.18 L 471.25,532.65 L 473.33,534.00 L 475.42,535.25 L 477.50,536.40 L 479.58,537.44 L 481.67,538.39 L 483.75,539.26 L 485.83,540.04 L 487.92,540.75 L 490.00,541.38 L 492.08,541.95 L 494.17,542.46 L 496.25,542.91 L 498.33,543.32 L 500.42,543.67 L 502.50,543.99 L 504.58,544.26 L 506.67,544.51 L 508.75,544.72 L 510.83,544.90 L 512.92,545.06 L 515.00,545.20 L 517.08,545.32 L 519.17,545.43 L 521.25,545.52 L 523.33,545.59 L 525.42,545.66 L 527.50,545.71 L 529.58,545.76 L 531.67,545.80 L 533.75,545.84 L 535.83,545.86 L 537.92,545.89 L 540.00,545.91" fill="none" stroke="#2563eb" stroke-width="2.4"/>
<line x1="40" y1="546" x2="540" y2="546" stroke="#222" stroke-width="1.3"/>
<line x1="290.0" y1="436" x2="290.0" y2="546" stroke="#111" stroke-width="1.5" stroke-dasharray="5,4"/>
<text x="46" y="442" text-anchor="start" font-family="Arial, Helvetica, sans-serif" font-size="15" fill="#111" font-weight="700">d&#x27; = 5</text>
<text x="46" y="460" text-anchor="start" font-family="Arial, Helvetica, sans-serif" font-size="12.5" fill="#b91c1c" font-weight="700">EER = 0.62%</text>
<line x1="193.0" y1="562" x2="387.0" y2="562" stroke="#555" stroke-width="1.4" stroke-linecap="round"/>
<line x1="387.0" y1="562" x2="381.93" y2="565.21" stroke="#555" stroke-width="1.4" stroke-linecap="round"/>
<line x1="387.0" y1="562" x2="381.93" y2="558.79" stroke="#555" stroke-width="1.4" stroke-linecap="round"/>
<line x1="387.0" y1="562" x2="193.0" y2="562" stroke="#555" stroke-width="1.4" stroke-linecap="round"/>
<line x1="193.0" y1="562" x2="198.07" y2="558.79" stroke="#555" stroke-width="1.4" stroke-linecap="round"/>
<line x1="193.0" y1="562" x2="198.07" y2="565.21" stroke="#555" stroke-width="1.4" stroke-linecap="round"/>
<text x="290.0" y="577" text-anchor="middle" font-family="Arial, Helvetica, sans-serif" font-size="11.5" fill="#333">Δμ = 5·σ = 0.40</text>
<text x="40" y="600" text-anchor="middle" font-family="Arial, Helvetica, sans-serif" font-size="11.5" fill="#333">0.0</text>
<text x="140.0" y="600" text-anchor="middle" font-family="Arial, Helvetica, sans-serif" font-size="11.5" fill="#333">0.2</text>
<text x="240.0" y="600" text-anchor="middle" font-family="Arial, Helvetica, sans-serif" font-size="11.5" fill="#333">0.4</text>
<text x="340.0" y="600" text-anchor="middle" font-family="Arial, Helvetica, sans-serif" font-size="11.5" fill="#333">0.6</text>
<text x="440.0" y="600" text-anchor="middle" font-family="Arial, Helvetica, sans-serif" font-size="11.5" fill="#333">0.8</text>
<text x="540.0" y="600" text-anchor="middle" font-family="Arial, Helvetica, sans-serif" font-size="11.5" fill="#333">1.0</text>
<text x="290.0" y="620" text-anchor="middle" font-family="Arial, Helvetica, sans-serif" font-size="13" fill="#222">distanza d</text>
<text x="750.0" y="104" text-anchor="middle" font-family="Arial, Helvetica, sans-serif" font-size="14" fill="#111" font-weight="700">EER in funzione di d&#x27;</text>
<line x1="620" y1="130.0" x2="880" y2="130.0" stroke="#e5e7eb"/>
<text x="614" y="134.0" text-anchor="end" font-family="Arial, Helvetica, sans-serif" font-size="11" fill="#333">50%</text>
<line x1="620" y1="175.4" x2="880" y2="175.4" stroke="#e5e7eb"/>
<text x="614" y="179.37993732333365" text-anchor="end" font-family="Arial, Helvetica, sans-serif" font-size="11" fill="#333">10%</text>
<line x1="620" y1="240.3" x2="880" y2="240.3" stroke="#e5e7eb"/>
<text x="614" y="244.3039498586669" text-anchor="end" font-family="Arial, Helvetica, sans-serif" font-size="11" fill="#333">1%</text>
<line x1="620" y1="305.2" x2="880" y2="305.2" stroke="#e5e7eb"/>
<text x="614" y="309.2279623940002" text-anchor="end" font-family="Arial, Helvetica, sans-serif" font-size="11" fill="#333">0.1%</text>
<line x1="620" y1="370.2" x2="880" y2="370.2" stroke="#e5e7eb"/>
<text x="614" y="374.15197492933345" text-anchor="end" font-family="Arial, Helvetica, sans-serif" font-size="11" fill="#333">0.01%</text>
<line x1="620" y1="435.1" x2="880" y2="435.1" stroke="#e5e7eb"/>
<text x="614" y="439.0759874646667" text-anchor="end" font-family="Arial, Helvetica, sans-serif" font-size="11" fill="#333">0.001%</text>
<line x1="620" y1="500.0" x2="880" y2="500.0" stroke="#e5e7eb"/>
<text x="614" y="504.0" text-anchor="end" font-family="Arial, Helvetica, sans-serif" font-size="11" fill="#333">0.0001%</text>
<line x1="620.0" y1="500" x2="620.0" y2="505" stroke="#222"/>
<text x="620.0" y="519" text-anchor="middle" font-family="Arial, Helvetica, sans-serif" font-size="11.5" fill="#333">0</text>
<line x1="648.9" y1="500" x2="648.9" y2="505" stroke="#222"/>
<text x="648.8888888888889" y="519" text-anchor="middle" font-family="Arial, Helvetica, sans-serif" font-size="11.5" fill="#333">1</text>
<line x1="677.8" y1="500" x2="677.8" y2="505" stroke="#222"/>
<text x="677.7777777777778" y="519" text-anchor="middle" font-family="Arial, Helvetica, sans-serif" font-size="11.5" fill="#333">2</text>
<line x1="706.7" y1="500" x2="706.7" y2="505" stroke="#222"/>
<text x="706.6666666666666" y="519" text-anchor="middle" font-family="Arial, Helvetica, sans-serif" font-size="11.5" fill="#333">3</text>
<line x1="735.6" y1="500" x2="735.6" y2="505" stroke="#222"/>
<text x="735.5555555555555" y="519" text-anchor="middle" font-family="Arial, Helvetica, sans-serif" font-size="11.5" fill="#333">4</text>
<line x1="764.4" y1="500" x2="764.4" y2="505" stroke="#222"/>
<text x="764.4444444444445" y="519" text-anchor="middle" font-family="Arial, Helvetica, sans-serif" font-size="11.5" fill="#333">5</text>
<line x1="793.3" y1="500" x2="793.3" y2="505" stroke="#222"/>
<text x="793.3333333333333" y="519" text-anchor="middle" font-family="Arial, Helvetica, sans-serif" font-size="11.5" fill="#333">6</text>
<line x1="822.2" y1="500" x2="822.2" y2="505" stroke="#222"/>
<text x="822.2222222222222" y="519" text-anchor="middle" font-family="Arial, Helvetica, sans-serif" font-size="11.5" fill="#333">7</text>
<line x1="851.1" y1="500" x2="851.1" y2="505" stroke="#222"/>
<text x="851.1111111111111" y="519" text-anchor="middle" font-family="Arial, Helvetica, sans-serif" font-size="11.5" fill="#333">8</text>
<line x1="880.0" y1="500" x2="880.0" y2="505" stroke="#222"/>
<text x="880.0" y="519" text-anchor="middle" font-family="Arial, Helvetica, sans-serif" font-size="11.5" fill="#333">9</text>
<line x1="620" y1="500" x2="880" y2="500" stroke="#222" stroke-width="1.5"/>
<line x1="620" y1="130" x2="620" y2="500" stroke="#222" stroke-width="1.5"/>
<text x="750.0" y="540" text-anchor="middle" font-family="Arial, Helvetica, sans-serif" font-size="13" fill="#222">d&#x27;</text>
<path d="M 620.3,130.1 L 621.2,130.5 L 622.0,130.8 L 622.9,131.1 L 623.8,131.5 L 624.6,131.9 L 625.5,132.2 L 626.4,132.6 L 627.2,133.0 L 628.1,133.3 L 629.0,133.7 L 629.8,134.1 L 630.7,134.5 L 631.6,134.9 L 632.4,135.3 L 633.3,135.7 L 634.2,136.1 L 635.0,136.5 L 635.9,136.9 L 636.8,137.3 L 637.6,137.7 L 638.5,138.2 L 639.4,138.6 L 640.2,139.0 L 641.1,139.5 L 642.0,139.9 L 642.8,140.3 L 643.7,140.8 L 644.6,141.3 L 645.4,141.7 L 646.3,142.2 L 647.2,142.7 L 648.0,143.1 L 648.9,143.6 L 649.8,144.1 L 650.6,144.6 L 651.5,145.1 L 652.4,145.6 L 653.2,146.1 L 654.1,146.6 L 655.0,147.1 L 655.8,147.6 L 656.7,148.1 L 657.6,148.7 L 658.4,149.2 L 659.3,149.7 L 660.2,150.3 L 661.0,150.8 L 661.9,151.4 L 662.8,151.9 L 663.6,152.5 L 664.5,153.1 L 665.4,153.6 L 666.2,154.2 L 667.1,154.8 L 668.0,155.4 L 668.8,156.0 L 669.7,156.6 L 670.6,157.2 L 671.4,157.8 L 672.3,158.4 L 673.2,159.0 L 674.0,159.6 L 674.9,160.2 L 675.8,160.9 L 676.6,161.5 L 677.5,162.2 L 678.4,162.8 L 679.2,163.4 L 680.1,164.1 L 681.0,164.8 L 681.8,165.4 L 682.7,166.1 L 683.6,166.8 L 684.4,167.5 L 685.3,168.1 L 686.2,168.8 L 687.0,169.5 L 687.9,170.2 L 688.8,170.9 L 689.6,171.7 L 690.5,172.4 L 691.4,173.1 L 692.2,173.8 L 693.1,174.6 L 694.0,175.3 L 694.8,176.0 L 695.7,176.8 L 696.6,177.6 L 697.4,178.3 L 698.3,179.1 L 699.2,179.8 L 700.0,180.6 L 700.9,181.4 L 701.8,182.2 L 702.6,183.0 L 703.5,183.8 L 704.4,184.6 L 705.2,185.4 L 706.1,186.2 L 707.0,187.0 L 707.8,187.9 L 708.7,188.7 L 709.6,189.5 L 710.4,190.4 L 711.3,191.2 L 712.2,192.1 L 713.0,192.9 L 713.9,193.8 L 714.8,194.6 L 715.6,195.5 L 716.5,196.4 L 717.4,197.3 L 718.2,198.2 L 719.1,199.1 L 720.0,200.0 L 720.8,200.9 L 721.7,201.8 L 722.6,202.7 L 723.4,203.6 L 724.3,204.6 L 725.2,205.5 L 726.0,206.4 L 726.9,207.4 L 727.8,208.3 L 728.6,209.3 L 729.5,210.2 L 730.4,211.2 L 731.2,212.2 L 732.1,213.2 L 733.0,214.1 L 733.8,215.1 L 734.7,216.1 L 735.6,217.1 L 736.4,218.1 L 737.3,219.1 L 738.2,220.2 L 739.0,221.2 L 739.9,222.2 L 740.8,223.3 L 741.6,224.3 L 742.5,225.3 L 743.4,226.4 L 744.2,227.4 L 745.1,228.5 L 746.0,229.6 L 746.8,230.7 L 747.7,231.7 L 748.6,232.8 L 749.4,233.9 L 750.3,235.0 L 751.2,236.1 L 752.0,237.2 L 752.9,238.3 L 753.8,239.5 L 754.6,240.6 L 755.5,241.7 L 756.4,242.8 L 757.2,244.0 L 758.1,245.1 L 759.0,246.3 L 759.8,247.5 L 760.7,248.6 L 761.6,249.8 L 762.4,251.0 L 763.3,252.2 L 764.2,253.3 L 765.0,254.5 L 765.9,255.7 L 766.8,256.9 L 767.6,258.2 L 768.5,259.4 L 769.4,260.6 L 770.2,261.8 L 771.1,263.1 L 772.0,264.3 L 772.8,265.6 L 773.7,266.8 L 774.6,268.1 L 775.4,269.3 L 776.3,270.6 L 777.2,271.9 L 778.0,273.2 L 778.9,274.4 L 779.8,275.7 L 780.6,277.0 L 781.5,278.3 L 782.4,279.7 L 783.2,281.0 L 784.1,282.3 L 785.0,283.6 L 785.8,285.0 L 786.7,286.3 L 787.6,287.6 L 788.4,289.0 L 789.3,290.4 L 790.2,291.7 L 791.0,293.1 L 791.9,294.5 L 792.8,295.8 L 793.6,297.2 L 794.5,298.6 L 795.4,300.0 L 796.2,301.4 L 797.1,302.8 L 798.0,304.3 L 798.8,305.7 L 799.7,307.1 L 800.6,308.5 L 801.4,310.0 L 802.3,311.4 L 803.2,312.9 L 804.0,314.3 L 804.9,315.8 L 805.8,317.3 L 806.6,318.8 L 807.5,320.2 L 808.4,321.7 L 809.2,323.2 L 810.1,324.7 L 811.0,326.2 L 811.8,327.7 L 812.7,329.3 L 813.6,330.8 L 814.4,332.3 L 815.3,333.8 L 816.2,335.4 L 817.0,336.9 L 817.9,338.5 L 818.8,340.0 L 819.6,341.6 L 820.5,343.2 L 821.4,344.8 L 822.2,346.3 L 823.1,347.9 L 824.0,349.5 L 824.8,351.1 L 825.7,352.7 L 826.6,354.4 L 827.4,356.0 L 828.3,357.6 L 829.2,359.2 L 830.0,360.9 L 830.9,362.5 L 831.8,364.2 L 832.6,365.8 L 833.5,367.5 L 834.4,369.1 L 835.2,370.8 L 836.1,372.5 L 837.0,374.2 L 837.8,375.9 L 838.7,377.6 L 839.6,379.3 L 840.4,381.0 L 841.3,382.7 L 842.2,384.4 L 843.0,386.2 L 843.9,387.9 L 844.8,389.6 L 845.6,391.4 L 846.5,393.1 L 847.4,394.9 L 848.2,396.6 L 849.1,398.4 L 850.0,400.2 L 850.8,402.0 L 851.7,403.8 L 852.6,405.6 L 853.4,407.4 L 854.3,409.2 L 855.2,411.0 L 856.0,412.8 L 856.9,414.6 L 857.8,416.5 L 858.6,418.3 L 859.5,420.1 L 860.4,422.0 L 861.2,423.8 L 862.1,425.7 L 863.0,427.6 L 863.8,429.4 L 864.7,431.3 L 865.6,433.2 L 866.4,435.1 L 867.3,437.0 L 868.2,438.9 L 869.0,440.8 L 869.9,442.7 L 870.8,444.6 L 871.6,446.6 L 872.5,448.5 L 873.4,450.4 L 874.2,452.4 L 875.1,454.3 L 876.0,456.3 L 876.8,458.3 L 877.7,460.2 L 878.6,462.2 L 879.4,464.2" fill="none" stroke="#dc2626" stroke-width="3"/>
<circle cx="663.3" cy="152.3" r="6" fill="#111" stroke="#fff" stroke-width="2"/>
<text x="673.3333333333334" y="144.31163547621605" text-anchor="start" font-family="Arial, Helvetica, sans-serif" font-size="11.5" fill="#111" font-weight="700" stroke="#ffffff" stroke-width="3" stroke-linejoin="round" paint-order="stroke">d&#x27; = 1.5</text>
<circle cx="706.7" cy="186.8" r="6" fill="#111" stroke="#fff" stroke-width="2"/>
<text x="716.6666666666666" y="178.75311299335254" text-anchor="start" font-family="Arial, Helvetica, sans-serif" font-size="11.5" fill="#111" font-weight="700" stroke="#ffffff" stroke-width="3" stroke-linejoin="round" paint-order="stroke">d&#x27; = 3</text>
<circle cx="764.4" cy="253.7" r="6" fill="#111" stroke="#fff" stroke-width="2"/>
<text x="774.4444444444445" y="245.73879301208007" text-anchor="start" font-family="Arial, Helvetica, sans-serif" font-size="11.5" fill="#111" font-weight="700" stroke="#ffffff" stroke-width="3" stroke-linejoin="round" paint-order="stroke">d&#x27; = 5</text>
<text x="628" y="488" text-anchor="start" font-family="Arial, Helvetica, sans-serif" font-size="12" fill="#555" stroke="#ffffff" stroke-width="3" stroke-linejoin="round" paint-order="stroke">d&#x27; ↑ → curve più separate → EER ↓</text>
<text x="40" y="658" text-anchor="start" font-family="Arial, Helvetica, sans-serif" font-size="11.5" fill="#555">Con σ diverse si usa la media quadratica: es. σ_I = 0.06, σ_E = 0.10 → σ_eff = 0.082 · d&#x27; non dice nulla sulla soglia, solo sulla separabilità.</text>
</svg>